<?xml version="1.0" encoding="utf-8"?>
<!-- Generator: Adobe Illustrator 25.1.0, SVG Export Plug-In . SVG Version: 6.00 Build 0)  -->
<svg version="1.1" id="Layer_1" xmlns="http://www.w3.org/2000/svg" xmlns:xlink="http://www.w3.org/1999/xlink" x="0px" y="0px"
	 viewBox="0 0 595.3 841.9" style="enable-background:new 0 0 595.3 841.9;" xml:space="preserve">
<style type="text/css">
	.st0{fill:#34425B;stroke:#000000;stroke-width:1.0021;stroke-miterlimit:10;}
	.st1{fill:#92959E;}
	.st2{fill:#BBBCBC;stroke:#BBBCBC;stroke-width:0.8669;stroke-miterlimit:10;}
	.st3{fill:#BBBCBC;stroke:#BBBCBC;stroke-width:0.3526;stroke-miterlimit:10;}
	.st4{fill:#BBBCBC;stroke:#BBBCBC;stroke-width:0.1774;stroke-miterlimit:10;}
	.st5{fill:#BBBCBC;stroke:#BBBCBC;stroke-width:6.335188e-02;stroke-miterlimit:10;}
	.st6{fill:#E1E1E1;stroke:#BBBCBC;stroke-width:0.1119;stroke-miterlimit:10;}
	.st7{fill:#E1E1E1;stroke:#BBBCBC;stroke-width:0.1716;stroke-miterlimit:10;}
	.st8{fill:#E1E1E1;stroke:#BBBCBC;stroke-width:6.709836e-02;stroke-miterlimit:10;}
	.st9{fill:#E1E1E1;stroke:#BBBCBC;stroke-width:0.1541;stroke-miterlimit:10;}
	.st10{fill:#ACACAD;stroke:#BBBCBC;stroke-width:5.537135e-02;stroke-miterlimit:10;}
	.st11{fill:#6A6E7D;}
	.st12{fill:#F0F0F1;}
	.st13{fill:#7C7B7C;}
	.st14{fill:none;stroke:#333333;stroke-miterlimit:10;}
	.st15{fill:#FAFAFD;}
	.st16{fill:#797A7A;}
	.st17{fill:#020303;}
	.st18{fill:#EED1E2;}
	.st19{fill:#232323;}
	.st20{fill:#ED8D35;}
	.st21{font-family:'MyriadPro-Regular';}
	.st22{font-size:20px;}
	.st23{fill:#6F97CB;}
	.st24{fill:#959595;}
	.st25{fill:none;stroke:#FEFFFF;stroke-width:0.75;stroke-linecap:round;stroke-miterlimit:10;}
</style>
<rect x="1.4" y="0.1" class="st0" width="593.1" height="842"/>
<circle class="st1" cx="298.2" cy="393.8" r="236.1"/>
<circle class="st2" cx="314.2" cy="404.5" r="192.5"/>
<circle class="st3" cx="231.7" cy="274.6" r="78.3"/>
<circle class="st4" cx="171.3" cy="517" r="39.4"/>
<circle class="st5" cx="370.6" cy="197.9" r="14.1"/>
<circle class="st6" cx="337" cy="471.8" r="24.8"/>
<circle class="st7" cx="248.5" cy="390.8" r="38.1"/>
<circle class="st8" cx="439.6" cy="362.4" r="14.9"/>
<circle class="st9" cx="226.8" cy="244.7" r="34.2"/>
<circle class="st10" cx="96.8" cy="91" r="12.3"/>
<circle class="st10" cx="147.7" cy="732.4" r="12.3"/>
<circle class="st10" cx="517.9" cy="671.6" r="12.3"/>
<ellipse class="st11" cx="298.6" cy="177.3" rx="45" ry="12.6"/>
<ellipse transform="matrix(7.088904e-02 -0.9975 0.9975 7.088904e-02 159.1409 409.4294)" class="st12" cx="299.4" cy="119.3" rx="21.8" ry="21.8"/>
<ellipse class="st13" cx="283.4" cy="178.5" rx="8" ry="6"/>
<path class="st13" d="M281.9,122.2c-1.8-4.6,5-14.3,13.6-14.7c8.9-0.5,16.8,9.2,15.2,14c-1.6,5-13.4,4.9-15.2,4.9
	C292.2,126.3,283.5,126.3,281.9,122.2z"/>
<ellipse class="st13" cx="315.5" cy="179.8" rx="8" ry="6"/>
<path class="st12" d="M301.5,133.6c-6.2,0.1-10.5,0.1-12.8-0.1c-0.5,0-1.8-0.1-3.5,0.3c-0.7,0.2-1.6,0.4-2.7,1.1
	c-1.4,0.9-2.1,2.1-2.6,2.9c0,0-0.5,0.8-0.8,1.6c-2.2,5-0.1,28.4,1.8,34.1c0.1,0.2,0.2,0.6,0.5,1c1,1.7,2.7,2.3,3.6,2.7
	c2.6,1,5.1,0.6,6.3,0.4l9-17.5"/>
<path class="st12" d="M299.7,158.9l8.6,18.7c1.2,0.3,3.6,0.6,6.3-0.4c0.9-0.3,2.6-1,3.6-2.7c0.3-0.4,0.4-0.8,0.5-1
	c1.9-5.8,4-29.1,1.8-34.1c-0.4-0.8-0.8-1.6-0.8-1.6c-0.5-0.8-1.2-1.9-2.6-2.9c-1-0.7-2-0.9-2.7-1.1c-1.7-0.4-3-0.3-3.5-0.3
	c-2.3,0.2-6.6,0.2-12.8,0.1"/>
<ellipse class="st13" cx="330.2" cy="161.2" rx="4.3" ry="4.2"/>
<line class="st14" x1="259.7" y1="168.8" x2="270.9" y2="89.9"/>
<ellipse class="st13" cx="299.6" cy="146.5" rx="11" ry="8.2"/>
<ellipse class="st13" cx="267.2" cy="132.1" rx="2.8" ry="2.8"/>
<rect x="319.3" y="139.1" transform="matrix(0.8366 -0.5479 0.5479 0.8366 -29.4825 201.5627)" class="st12" width="7.6" height="22.2"/>
<path class="st12" d="M269.9,131.7c1.7,4,3.7,5.3,5.1,5.7c2.3,0.6,4-0.8,6.4,0.4c0.3,0.2,2,1.1,2.3,2.7c0.3,1.7-0.9,3.3-2,4.1
	c-2.2,1.5-4.9,0.6-6.2,0.2c-4-1.3-6.3-4.6-8-6.9c-1.2-1.7-2-3.3-2.5-4.3"/>
<path class="st15" d="M207.4,141.5c2.7-0.6,5-1,6.8,0.4c2.3,1.9,2.2,5.9,0.6,8.3c-1,1.6-3.1,3.1-4.1,2.6c-0.8-0.4-0.8-1.9-0.8-2.8
	c0-2.8,1.3-4.1,0.8-4.6c-0.9-0.9-5.8,1.3-6.6,1.7c-0.6,0.3-1.4,0.6-2,0.3c-0.7-0.4-1.1-1.5-0.9-2.3
	C201.7,142.7,206.2,141.8,207.4,141.5z"/>
<path class="st15" d="M207.9,118.3c0.9,1.7-4.5,8-14.5,13.6c-8.5,4.8-19.8,11.1-33.7,9.6c-1.7-0.2-13.9-1.6-23.1-0.7
	c-1.4,0.1-4.4,0.5-5.5,2.6c-1.2,2.1,0.2,4.9,0.5,5.5c3.5,7.1,17.4,9.3,28.1,7.2c7.9-1.5,7.7-5.4,15.1-6.4c8.5-1.2,10.2,3,18.2,1.9
	c0.4-0.1,0.7-0.1,1-0.2c8.4-1.5,11.5-6,16.8-8.7c5.1-2.7,4.8,0.1,21.1-3.5c3.2-0.7,8.8-2,10-5.8c0.1-0.3,0.5-1.1,0.2-1.5
	c-0.6-0.8-3.2-0.6-4.9,0.8c-1.2,1-1,1.8-2,2.2c-1.2,0.5-2.1-0.2-4.3-0.5c-1.7-0.2-2.1,0.1-4,0.1c-2.2,0-6,0.1-7-1.6
	c-1.3-2.1,2.2-7.7,6.6-11c2.8-2,5.9-3.1,7.9-6.6c0.2-0.4,1.1-1.9,0.6-2.5c-0.4-0.4-1.3-0.1-3.7,0.4c-1.8,0.4-2.8,0.6-3.1,0.6
	c-2.7-0.1-3.4-2.2-6.1-2.4c-0.6,0-0.7,0.1-3.1,0.7c-3.5,0.9-5.9,1.3-9.7,2.7c-1.5,0.5-2.7,1-2.7,1.7
	C206.7,117.5,207.6,117.8,207.9,118.3z"/>
<path class="st15" d="M174.7,148.5c-0.8,0.3-3.1,1.1-3,2c0,0.3,0.3,0.5,0.5,0.6c1.8,1.4,1.3,6.6-0.6,11.2c-0.8,1.9-1,1.7-1.7,3.3
	c-2.3,5.3-2.2,13.1,0.9,14.5c2.7,1.3,7.6-2.6,7.2-3.7c-0.2-0.7-2.7,0.3-4.1-1.1c-2.6-2.4,1-9.8,1.5-11c1.3-2.7,3.9-8.2,7.2-7.9
	c2,0.2,3.7,2.6,4.4,4.3c0.5,1.3,0.3,1.9,0.6,3.1c0.8,3.5,4.5,7.2,8.5,7.3c3.5,0.1,6.9-2.5,6.7-3.7c-0.1-0.6-1.3-0.5-3.9-1.3
	c-1.8-0.6-5.5-1.9-6.1-4.3c-0.2-1,0.2-1.4,0.7-3.2c0.4-1.2,1.7-5.4,0.8-7.7C192.4,145.7,179.1,146.9,174.7,148.5z"/>
<ellipse transform="matrix(0.6775 -0.7355 0.7355 0.6775 -7.9646 209.179)" class="st16" cx="234.6" cy="113.7" rx="0.7" ry="1"/>
<ellipse transform="matrix(0.9655 -0.2603 0.2603 0.9655 -22.7283 62.0284)" class="st17" cx="222.8" cy="116.8" rx="1.5" ry="0.3"/>
<ellipse transform="matrix(0.7667 -0.642 0.642 0.7667 -27.5701 168.4888)" class="st18" cx="218" cy="122.2" rx="1.4" ry="0.1"/>
<ellipse transform="matrix(0.5022 -0.8648 0.8648 0.5022 2.513 250.5596)" class="st18" cx="218.9" cy="123.1" rx="1.4" ry="0.1"/>
<ellipse transform="matrix(0.866 -0.5 0.5 0.866 -31.55 124.87)" class="st18" cx="217.2" cy="121.3" rx="1.4" ry="0.1"/>
<ellipse transform="matrix(0.9393 -0.343 0.343 0.9393 -27.1205 78.6951)" class="st19" cx="208.9" cy="116" rx="1.4" ry="0.1"/>
<ellipse transform="matrix(0.1708 -0.9853 0.9853 0.1708 58.2883 302.7539)" class="st19" cx="209" cy="116.7" rx="0.1" ry="1.4"/>
<text transform="matrix(1 0 0 1 296.7807 86.6997)" class="st20 st21 st22">!</text>
<text transform="matrix(0.866 -0.5 0.5 0.866 284.8326 89.4644)" class="st20 st21 st22">!</text>
<text transform="matrix(0.866 0.5 -0.5 0.866 319.5771 93.8366)" class="st20 st21 st22">?</text>
<ellipse transform="matrix(0.866 -0.5 0.5 0.866 -67.0246 126.6764)" class="st11" cx="202.9" cy="188.4" rx="32.2" ry="2.6"/>
<rect x="225.2" y="87.3" transform="matrix(-0.99 -0.1409 0.1409 -0.99 478.3258 229.1614)" class="st23" width="44.1" height="20.8"/>
<polygon class="st24" points="209.8,115.9 208.3,116.4 209.8,116.7 "/>
<g>
	<line class="st25" x1="241.3" y1="102.8" x2="252" y2="91.3"/>
	<line class="st25" x1="249.4" y1="104.4" x2="244.8" y2="89.3"/>
	<line class="st25" x1="239.4" y1="94.9" x2="254.7" y2="98.4"/>
	<line class="st25" x1="241.9" y1="95.3" x2="241.1" y2="92.4"/>
	<line class="st25" x1="250.6" y1="92.7" x2="249.7" y2="89.8"/>
	<line class="st25" x1="250.9" y1="92.8" x2="253.8" y2="93.5"/>
	<line class="st25" x1="248.8" y1="101.9" x2="251.7" y2="102.7"/>
	<line class="st25" x1="240.1" y1="97.4" x2="241.9" y2="95.4"/>
	<line class="st25" x1="247.1" y1="103.9" x2="248.9" y2="102"/>
	<line class="st25" x1="239.7" y1="100.5" x2="242.6" y2="101.2"/>
	<line class="st25" x1="243.7" y1="104.2" x2="242.8" y2="101.3"/>
	<line class="st25" x1="252.8" y1="100.7" x2="252" y2="97.8"/>
	<line class="st25" x1="252.1" y1="97.8" x2="253.9" y2="95.8"/>
	<line class="st25" x1="242.5" y1="90.8" x2="245.4" y2="91.5"/>
	<line class="st25" x1="245.5" y1="91.3" x2="247.3" y2="89.3"/>
</g>
</svg>
