<?xml version="1.0" encoding="utf-8"?>
<!-- Generator: Adobe Illustrator 25.1.0, SVG Export Plug-In . SVG Version: 6.00 Build 0)  -->
<svg version="1.1" id="Layer_1" xmlns="http://www.w3.org/2000/svg" xmlns:xlink="http://www.w3.org/1999/xlink" x="0px" y="0px"
	 viewBox="0 0 1366 284" style="enable-background:new 0 0 1366 284;" xml:space="preserve">
<style type="text/css">
	.st0{fill:#F2F2F2;}
	.st1{fill:#868686;}
	.st2{fill:#BABABA;}
	.st3{fill:#F4D4E5;}
</style>
<ellipse transform="matrix(7.088242e-02 -0.9975 0.9975 7.088242e-02 577.3438 1029.7892)" class="st0" cx="841.5" cy="205" rx="38.1" ry="38.1"/>
<path class="st0" d="M824.4,251.9h-40.1c-5.8,0-10.5-4.7-10.5-10.5v-1.5c0-5.8,4.7-10.5,10.5-10.5h40.1c5.8,0,10.5,4.7,10.5,10.5
	v1.5C834.9,247.2,830.2,251.9,824.4,251.9z"/>
<path class="st1" d="M816.8,215.1c-3.2-8,8.8-24.9,23.7-25.7c15.5-0.8,29.3,16.1,26.6,24.4c-2.8,8.7-23.4,8.6-26.6,8.6
	C834.8,222.4,819.7,222.4,816.8,215.1z"/>
<path class="st0" d="M856.3,294.9h-26.8c-14.7,0-26.6-11.9-26.6-26.6v-16.8c0-14.7,11.9-26.6,26.6-26.6h26.8
	c14.7,0,26.6,11.9,26.6,26.6v16.8C882.9,283,871,294.9,856.3,294.9z"/>
<ellipse class="st1" cx="841.9" cy="261.9" rx="26.6" ry="20"/>
<path class="st0" d="M782.2,199.8l13.7,37.7c2,5.4-0.8,11.4-6.2,13.4l-1.5,0.5c-5.4,2-11.4-0.8-13.4-6.2l-13.7-37.7
	c-2-5.4,0.8-11.4,6.2-13.4l1.5-0.5C774.2,191.5,780.2,194.3,782.2,199.8z"/>
<ellipse transform="matrix(0.7092 -0.705 0.705 0.7092 82.5423 596.3159)" class="st1" cx="764.1" cy="198.1" rx="5" ry="9.2"/>
<ellipse class="st2" cx="545.9" cy="264.9" rx="45" ry="54"/>
<path class="st0" d="M885.1,237.8l13.7,37.7c2,5.4-0.8,11.4-6.2,13.4l-1.5,0.5c-5.4,2-11.4-0.8-13.4-6.2L864,245.5
	c-2-5.4,0.8-11.4,6.2-13.4l1.5-0.5C877.1,229.6,883.1,232.4,885.1,237.8z"/>
<path class="st1" d="M773.4,205.9h-4c-4.1,0-7.5-3.4-7.5-7.5v-8.8c0-4.1,3.4-7.5,7.5-7.5h4c4.1,0,7.5,3.4,7.5,7.5v8.8
	C780.9,202.5,777.5,205.9,773.4,205.9z"/>
<path class="st0" d="M511.9,175.9c-4.1,0.8-6.7,4.5-7,5c-1.5,2.2-1.8,4.4-2,6c-1.5,14.7,2,34,2,34c1.6,10.3,2.7,15.3,3,16
	c3.2,8.2,10.6,10.4,23,23c0.2,0.2,0.5,0.5,1,1c4.8,4.7,8.4,8.3,12,9c3.7,0.8,7.5-2.2,15-8c3.5-2.7,6-5.2,11-10
	c6.9-6.7,10.4-10.1,12-13c1.9-3.3,1.7-4.7,4-17c3.1-17.2,4-18,4-24c0-7.9,0.1-15.1-5-19c-3.6-2.7-8.6-2.9-12-2c-3.6,1-9,4.1-12,9
	c-0.7,1.1-1.8,3.2-4,4c-1.7,0.6-3.1,0.2-4,0c-8.3-1.8-13.8,3.6-19,0c-0.6-0.4-0.6-0.6-2-2C526.8,182.6,519,174.5,511.9,175.9z"/>
<ellipse transform="matrix(0.5 -0.866 0.866 0.5 121.0635 596.0311)" cx="576.7" cy="193.2" rx="7.6" ry="0.5"/>
<ellipse transform="matrix(0.866 -0.5 0.5 0.866 -26.6342 284.2693)" cx="517.1" cy="191.8" rx="0.5" ry="7.6"/>
<ellipse cx="533.4" cy="219" rx="2.6" ry="2.6"/>
<ellipse cx="558" cy="220" rx="2.6" ry="2.6"/>
<ellipse transform="matrix(0.866 -0.5 0.5 0.866 -50.354 305.8983)" cx="545.6" cy="246.9" rx="6.8" ry="6.6"/>
<ellipse transform="matrix(0.866 -0.5 0.5 0.866 -41.9788 317.7196)" class="st3" cx="571.9" cy="237.2" rx="4.5" ry="0.4"/>
<ellipse transform="matrix(0.5 -0.866 0.866 0.5 57.2764 568.0943)" class="st3" cx="520.6" cy="234.4" rx="0.4" ry="4.5"/>
</svg>
