<?xml version="1.0" encoding="utf-8"?>
<!-- Generator: Adobe Illustrator 25.1.0, SVG Export Plug-In . SVG Version: 6.00 Build 0)  -->
<svg version="1.1" id="Layer_1" xmlns="http://www.w3.org/2000/svg" xmlns:xlink="http://www.w3.org/1999/xlink" x="0px" y="0px"
	 viewBox="0 0 1366 472" style="enable-background:new 0 0 1366 472;" xml:space="preserve">
<style type="text/css">
	.st0{fill:#3A4B68;stroke:#231F20;stroke-width:1.1456;stroke-miterlimit:10;}
	.st1{fill:#3A4B68;stroke:#231F20;stroke-width:0.7098;stroke-miterlimit:10;}
	.st2{fill:#92959E;stroke:#231F20;stroke-width:0.7098;stroke-miterlimit:10;}
	.st3{fill:#C2C3C3;stroke:#C2C3C3;stroke-width:8.316629e-02;stroke-miterlimit:10.0002;}
	.st4{fill:#C2C3C3;stroke:#C2C3C3;stroke-width:8.119732e-02;stroke-miterlimit:10;}
	.st5{fill:#C2C3C3;stroke:#C2C3C3;stroke-width:0.2186;stroke-miterlimit:10.0012;}
	.st6{fill:#757A89;}
	.st7{fill:#F2F2F2;}
	.st8{fill:#868686;}
	.st9{fill:none;stroke:#3A3A3A;stroke-width:1.7496;stroke-miterlimit:10;}
	.st10{fill:#FAFBFD;}
	.st11{fill:#848485;}
	.st12{fill:#F4D4E5;}
	.st13{fill:#272727;}
	.st14{fill:#76A1D4;}
	.st15{fill:#A0A0A0;}
	.st16{fill:none;stroke:#FFFFFF;stroke-width:1.3122;stroke-linecap:round;stroke-miterlimit:10;}
	.st17{fill:#834523;}
	.st18{fill:#FE9453;}
	.st19{fill:#FF9B69;}
	.st20{fill:#F36436;}
	.st21{fill:#000344;}
	.st22{fill:#2D50C1;}
	.st23{fill:#4577DB;}
	.st24{fill:#017701;}
	.st25{fill:#FCFCFC;}
	.st26{font-family:'Arial-BoldMT';}
	.st27{font-size:50px;}
</style>
<path class="st0" d="M1369.5,472.5H-1.5c0-2.5,0-5,0-7.6c0-156.1,0-312.3,0-468.4c457,0,914,0,1371,0V472.5z"/>
<path class="st1" d="M694.9,311"/>
<path class="st2" d="M271.5,476.2c53.4-37.7,197.6-128.9,403.3-133.8c226.6-5.4,386.2,97.3,438,133.8"/>
<ellipse class="st3" cx="868.3" cy="394.8" rx="18.5" ry="18.5"/>
<path class="st4" d="M362.3,472.5c34.2-26.2,89.7-60.8,165.2-77.5c187.1-41.3,339.4,62.1,366.4,81"/>
<ellipse transform="matrix(0.9871 -0.1602 0.1602 0.9871 -60.2236 86.2014)" class="st5" cx="504.5" cy="416.6" rx="63.3" ry="37.2"/>
<ellipse class="st6" cx="718" cy="362.8" rx="78.7" ry="22"/>
<ellipse transform="matrix(7.088242e-02 -0.9975 0.9975 7.088242e-02 412.8233 955.6729)" class="st7" cx="719.4" cy="256.2" rx="38.1" ry="38.1"/>
<ellipse class="st8" cx="691.5" cy="359.8" rx="14.1" ry="10.5"/>
<path class="st8" d="M688.8,261.3c-3.2-8,8.8-24.9,23.7-25.7c15.5-0.8,29.3,16.1,26.6,24.4c-2.8,8.7-23.4,8.6-26.6,8.6
	C706.8,268.6,691.7,268.6,688.8,261.3z"/>
<ellipse class="st8" cx="747.6" cy="362.2" rx="14.1" ry="10.5"/>
<path class="st7" d="M723.1,281.3c-10.9,0.1-18.4,0.1-22.4-0.2c-0.8-0.1-3.2-0.2-6.1,0.5c-1.2,0.3-2.9,0.7-4.7,1.9
	c-2.4,1.6-3.6,3.6-4.5,5c0,0-0.8,1.3-1.4,2.7c-3.8,8.7-0.1,49.7,3.2,59.7c0.1,0.3,0.3,1,0.8,1.8c1.7,2.9,4.7,4.1,6.3,4.7
	c4.6,1.8,8.9,1.1,10.9,0.6l15.8-30.6"/>
<path class="st7" d="M719.9,325.5l15,32.7c2,0.5,6.4,1.1,10.9-0.6c1.5-0.6,4.5-1.8,6.3-4.7c0.5-0.8,0.7-1.5,0.8-1.8
	c3.3-10.1,7-51,3.2-59.7c-0.6-1.4-1.4-2.7-1.4-2.7c-0.9-1.4-2.1-3.4-4.5-5c-1.8-1.2-3.5-1.6-4.7-1.9c-2.9-0.7-5.3-0.5-6.1-0.5
	c-4,0.3-11.5,0.3-22.4,0.2"/>
<ellipse class="st8" cx="773.3" cy="329.6" rx="7.5" ry="7.3"/>
<line class="st9" x1="650" y1="343" x2="669.6" y2="204.9"/>
<ellipse class="st8" cx="719.8" cy="303.9" rx="19.2" ry="14.4"/>
<ellipse class="st8" cx="663.2" cy="278.7" rx="4.9" ry="4.9"/>
<rect x="754.6" y="290.9" transform="matrix(0.8366 -0.5479 0.5479 0.8366 -45.5962 467.7612)" class="st7" width="13.3" height="38.8"/>
<path class="st7" d="M667.8,278c3,7.1,6.4,9.3,9,9.9c4,1,7-1.4,11.2,0.8c0.6,0.3,3.5,1.9,4,4.8c0.5,3-1.6,5.8-3.6,7.1
	c-3.8,2.6-8.7,1-10.9,0.3c-7-2.3-11.1-8-14-12.1c-2.1-3-3.5-5.7-4.3-7.6"/>
<path class="st10" d="M558.5,295.2c4.7-1,8.8-1.8,11.8,0.7c4,3.3,3.8,10.3,1.1,14.6c-1.8,2.9-5.4,5.5-7.2,4.6
	c-1.4-0.7-1.4-3.4-1.4-5c0-4.8,2.3-7.1,1.4-8.1c-1.5-1.6-10.2,2.4-11.5,3c-1,0.5-2.4,1.1-3.5,0.6c-1.3-0.6-1.9-2.6-1.6-4.1
	C548.5,297.2,556.3,295.6,558.5,295.2z"/>
<path class="st10" d="M559.3,254.6c1.6,3-7.8,14-25.3,23.9c-14.9,8.4-34.6,19.5-58.9,16.9c-3-0.3-24.3-2.8-40.3-1.2
	c-2.5,0.3-7.7,0.9-9.7,4.5c-2,3.7,0.4,8.5,0.9,9.6c6.1,12.4,30.5,16.2,49.2,12.7c13.8-2.6,13.5-9.4,26.4-11.2
	c14.8-2,17.9,5.2,31.8,3.4c0.8-0.1,1.3-0.2,1.8-0.3c14.7-2.6,20.1-10.4,29.5-15.3c9-4.7,8.4,0.2,37-6.1c5.6-1.2,15.4-3.6,17.4-10.1
	c0.2-0.6,0.9-1.9,0.4-2.7c-1-1.5-5.6-1-8.5,1.4c-2.1,1.7-1.7,3.1-3.5,3.9c-2.1,1-3.6-0.3-7.6-0.8c-3-0.4-3.6,0.2-7,0.2
	c-3.9,0-10.6,0.1-12.2-2.7c-2.2-3.8,3.8-13.6,11.6-19.2c4.8-3.5,10.4-5.4,13.9-11.5c0.4-0.8,1.9-3.4,1-4.4c-0.7-0.7-2.2-0.2-6.4,0.7
	c-3.2,0.7-4.8,1-5.5,1c-4.7-0.1-6-3.9-10.6-4.2c-1.1-0.1-1.2,0.1-5.3,1.2c-6.1,1.6-10.4,2.3-17,4.7c-2.6,0.9-4.7,1.8-4.8,3
	C557.2,253.2,558.8,253.7,559.3,254.6z"/>
<path class="st10" d="M501.3,307.4c-1.4,0.5-5.4,1.9-5.3,3.5c0,0.6,0.6,0.9,0.9,1.1c3.1,2.4,2.3,11.5-1.1,19.6c-1.4,3.3-1.8,3-3,5.7
	c-4.1,9.3-3.8,22.9,1.5,25.4c4.8,2.2,13.3-4.6,12.7-6.6c-0.4-1.3-4.7,0.4-7.2-1.9c-4.5-4.2,1.7-17.2,2.7-19.3
	c2.3-4.7,6.9-14.4,12.6-13.8c3.5,0.3,6.5,4.5,7.7,7.5c0.9,2.3,0.5,3.3,1,5.5c1.3,6.1,7.8,12.6,14.9,12.8c6.2,0.2,12.1-4.4,11.7-6.4
	c-0.2-1.1-2.3-0.8-6.8-2.3c-3.1-1.1-9.6-3.3-10.6-7.5c-0.4-1.7,0.3-2.5,1.2-5.6c0.6-2.1,2.9-9.4,1.4-13.5
	C532.3,302.5,508.9,304.7,501.3,307.4z"/>
<ellipse transform="matrix(0.6775 -0.7355 0.7355 0.6775 14.1307 525.2076)" class="st11" cx="606" cy="246.5" rx="1.3" ry="1.7"/>
<ellipse transform="matrix(0.9655 -0.2603 0.2603 0.9655 -45.415 161.0669)" cx="585.4" cy="252" rx="2.6" ry="0.4"/>
<ellipse transform="matrix(0.7667 -0.642 0.642 0.7667 -33.1218 431.4564)" class="st12" cx="577.1" cy="261.3" rx="2.5" ry="0.2"/>
<ellipse transform="matrix(0.5022 -0.8648 0.8648 0.5022 60.7054 631.2637)" class="st12" cx="578.6" cy="262.9" rx="2.5" ry="0.2"/>
<ellipse transform="matrix(0.866 -0.5 0.5 0.866 -52.7687 322.6572)" class="st12" cx="575.7" cy="259.8" rx="2.5" ry="0.2"/>
<ellipse transform="matrix(0.9393 -0.343 0.343 0.9393 -51.9096 207.6947)" class="st13" cx="561.2" cy="250.6" rx="2.5" ry="0.2"/>
<ellipse transform="matrix(0.1708 -0.9853 0.9853 0.1708 217.2036 761.6571)" class="st13" cx="561.1" cy="251.8" rx="0.2" ry="2.5"/>
<rect x="610.1" y="180" transform="matrix(0.1409 -0.99 0.99 0.1409 323.3242 809.736)" class="st14" width="36.3" height="77.2"/>
<polygon class="st15" points="562.7,250.4 560,251.3 562.7,251.8 "/>
<g>
	<line class="st16" x1="617.8" y1="227.4" x2="636.5" y2="207.3"/>
	<line class="st16" x1="631.9" y1="230.2" x2="623.9" y2="203.9"/>
	<line class="st16" x1="614.5" y1="213.5" x2="641.2" y2="219.7"/>
	<line class="st16" x1="618.9" y1="214.4" x2="617.4" y2="209.2"/>
	<line class="st16" x1="634.1" y1="209.9" x2="632.6" y2="204.7"/>
	<line class="st16" x1="634.5" y1="209.9" x2="639.6" y2="211.2"/>
	<line class="st16" x1="630.8" y1="225.9" x2="635.9" y2="227.2"/>
	<line class="st16" x1="615.7" y1="217.9" x2="618.9" y2="214.5"/>
	<line class="st16" x1="627.9" y1="229.4" x2="631" y2="226"/>
	<line class="st16" x1="615" y1="223.3" x2="620.1" y2="224.6"/>
	<line class="st16" x1="621.9" y1="229.9" x2="620.4" y2="224.8"/>
	<line class="st16" x1="637.9" y1="223.8" x2="636.4" y2="218.6"/>
	<line class="st16" x1="636.7" y1="218.6" x2="639.8" y2="215.2"/>
	<line class="st16" x1="619.9" y1="206.5" x2="625" y2="207.8"/>
	<line class="st16" x1="625.2" y1="207.3" x2="628.3" y2="203.8"/>
</g>
<g>
	<ellipse class="st17" cx="132" cy="121.2" rx="47" ry="46.8"/>
	<path class="st18" d="M179.4,120.9c0,26.4-25.4,50.9-47,46.8c-18.3-3.5-28.5-26.5-29.4-43.7c-1.1-20.2,9.8-46.2,29.4-49.9
		C154.1,70,179.4,94.6,179.4,120.9z"/>
	<path class="st19" d="M130,114c4.4-1.9,7.4-3.2,11-6c6.1-4.8,6.3-8,10-9c6.1-1.6,13.1,5.2,16,9c7.2,9.3,5.3,20.4,5,22
		c-1.5,8-7,18.2-16,21c-12.2,3.7-16.9-10.2-39-12c-3.2-0.3-8.4-0.4-11-4c-2.2-3.1-2.4-8.4,0-12C109.5,117.7,115.5,120.2,130,114z"/>
	<path class="st20" d="M112,99c6.3-3.2,5.6-7.7,10-9c5.2-1.5,10.8,3.2,13,5c2.7,2.3,5.8,5.9,5,7c-0.7,1.1-4-1.9-9-2
		c-8.7-0.2-12,8.4-19,7c-3.3-0.7-6.3-3.4-6-5C106.2,100.6,108.7,100.7,112,99z"/>
	<path class="st20" d="M133,127c5.9-1.2,10-6.7,11-8c3.9-5.3,3.1-9,6-10c3.9-1.3,9.2,4.1,12,7c3.1,3.2,4.6,4.7,5,7
		c1.4,8.2-12.9,21.4-25,20c-8-0.9-8.6-7.4-20-10c-8.8-2-15.1,0.4-16-2c-0.8-2.1,3.1-6.7,8-8C121.4,121.1,125.1,128.6,133,127z"/>
	
		<animateTransform  accumulate="none" additive="replace" attributeName="transform" attributeType="XML" calcMode="linear" dur="10s" fill="remove" from="0 800 1800" repeatCount="indefinite" restart="always" to="360 800 1800" type="rotate">
		</animateTransform>
</g>
<g>
	<ellipse class="st21" cx="1255.8" cy="201.8" rx="47" ry="46.8"/>
	<path class="st22" d="M1303.2,201.5c0,26.4-25.4,50.9-47,46.8c-18.3-3.5-28.5-26.5-29.4-43.7c-1.1-20.2,9.8-46.2,29.4-49.9
		C1277.9,150.6,1303.2,175.2,1303.2,201.5z"/>
	<path class="st23" d="M1253.8,194.6c4.4-1.9,7.4-3.2,11-6c6.1-4.8,6.3-8,10-9c6.1-1.6,13.1,5.2,16,9c7.2,9.3,5.3,20.4,5,22
		c-1.5,8-7,18.2-16,21c-12.2,3.7-16.9-10.2-39-12c-3.2-0.3-8.4-0.4-11-4c-2.2-3.1-2.4-8.4,0-12
		C1233.3,198.3,1239.3,200.8,1253.8,194.6z"/>
	<path class="st24" d="M1256.8,207.6c5.9-1.2,10-6.7,11-8c3.9-5.3,3.1-9,6-10c3.9-1.3,9.2,4.1,12,7c3.1,3.2,4.6,4.7,5,7
		c1.4,8.2-12.9,21.4-25,20c-8-0.9-8.6-7.4-20-10c-8.8-2-15.1,0.4-16-2c-0.8-2.1,3.1-6.7,8-8C1245.2,201.7,1248.9,209.2,1256.8,207.6
		z"/>
	<path class="st23" d="M1235.1,177.3c-1.6-5.3,8.4-15.6,19.1-17.6c15.7-3.1,30.4,12.1,29.4,14.2c-1.1,2.3-20.5-10.4-32.4-2.2
		c-4.9,3.4-7.7,9.8-12.1,9C1237.3,180.4,1235.6,179,1235.1,177.3z"/>
	
		<animateTransform  accumulate="none" additive="replace" attributeName="transform" attributeType="XML" calcMode="linear" dur="10s" fill="remove" from="0 800 1800" repeatCount="indefinite" restart="always" to="360 800 1800" type="rotate">
		</animateTransform>
</g>
<text transform="matrix(1 0 0 1 312.813 137.606)" class="st25 st26 st27">Welcome to Snow’s HomePage!</text>
</svg>
