<?xml version="1.0" encoding="utf-8"?>
<!-- Generator: Adobe Illustrator 25.1.0, SVG Export Plug-In . SVG Version: 6.00 Build 0)  -->
<svg version="1.1" id="Layer_1" xmlns="http://www.w3.org/2000/svg" xmlns:xlink="http://www.w3.org/1999/xlink" x="0px" y="0px"
	 viewBox="0 0 1366 472" style="enable-background:new 0 0 1366 472;" xml:space="preserve">
<style type="text/css">
	.st0{fill:#3A4B68;stroke:#231F20;stroke-width:1.1456;stroke-miterlimit:10;}
	.st1{fill:#F3C27F;}
	.st2{fill:#00013A;}
	.st3{fill:#033D8F;}
	.st4{fill:#8AD7E9;}
	.st5{fill:#3A4B68;stroke:#231F20;stroke-width:0.7098;stroke-miterlimit:10;}
	.st6{fill:#92959E;stroke:#231F20;stroke-width:0.7098;stroke-miterlimit:10;}
	.st7{fill:#C2C3C3;stroke:#C2C3C3;stroke-width:8.316629e-02;stroke-miterlimit:10.0002;}
	.st8{fill:#C2C3C3;stroke:#C2C3C3;stroke-width:8.119732e-02;stroke-miterlimit:10;}
	.st9{fill:#C2C3C3;stroke:#C2C3C3;stroke-width:0.2186;stroke-miterlimit:10.001;}
	.st10{fill:#757A89;}
	.st11{fill:#F2F2F2;}
	.st12{fill:#868686;}
	.st13{fill:none;stroke:#3A3A3A;stroke-width:1.7496;stroke-miterlimit:10;}
	.st14{fill:#FAFBFD;}
	.st15{fill:#848485;}
	.st16{fill:#F4D4E5;}
	.st17{fill:#272727;}
	.st18{fill:#76A1D4;}
	.st19{fill:#A0A0A0;}
	.st20{fill:none;stroke:#FFFFFF;stroke-width:1.3122;stroke-linecap:round;stroke-miterlimit:10;}
	.st21{fill:#834523;}
	.st22{fill:#FE9453;}
	.st23{fill:#FF9B69;}
	.st24{fill:#F36436;}
	.st25{fill:#000344;}
	.st26{fill:#2D50C1;}
	.st27{fill:#4577DB;}
	.st28{fill:#017701;}
</style>
<path class="st0" d="M1369.5,472.5H-1.5c0-2.5,0-5,0-7.6c0-156.1,0-312.3,0-468.4c457,0,914,0,1371,0V472.5z"/>
<g>
	<g id="ISS" transform="matrix(30.641 0 0 -30.641 -14445 10141)">
		<g transform="translate(472.86 322.37)">
			<path class="st1" d="M-9.2-20.5v-1.1v-0.8c0,0,0,0,0.1,0l0,0l0.6,0.1l-0.2,1.9H-9.2z"/>
		</g>
		<g transform="translate(475.38 322.49)">
			<path class="st1" d="M-11.3-20.6h0.4l0.3-1.9l-0.6-0.1L-11.3-20.6z"/>
		</g>
		<g transform="translate(478.41 322.62)">
			<path class="st1" d="M-13.8-20.8h0.4l0.5-1.8l-0.5-0.1c0,0,0,0-0.1,0L-13.8-20.8z"/>
		</g>
		<g transform="translate(481.01 322.72)">
			<path class="st1" d="M-15.8-20.9h0.4l0.6-1.7l-0.5-0.1L-15.8-20.9z"/>
		</g>
		<g transform="translate(498.76 322.58)">
			<path class="st1" d="M-30.1-20.7l1-1.2h0.1l0.2,0.1l-1,1.2L-30.1-20.7z"/>
		</g>
		<g transform="translate(500.24 322.69)">
			<path class="st1" d="M-31.4-20.8h0.2l1-1.1l-0.2-0.1L-31.4-20.8z"/>
		</g>
		<g transform="translate(501.71 322.74)">
			<path class="st1" d="M-32.5-20.9h0.2l1-1.1l-0.2-0.1L-32.5-20.9z"/>
		</g>
		<g transform="translate(503.21 322.8)">
			<path class="st1" d="M-33.7-20.9h0.2l1-1.1l-0.2-0.1L-33.7-20.9z"/>
		</g>
		<g transform="translate(474.1 322.85)">
			<path class="st2" d="M-10.3-21L-10.3-21l1.6,0.2v-0.1L-10.3-21z"/>
		</g>
		<g transform="translate(482.84 323.11)">
			<path class="st2" d="M-17.3-21.2h1.8v-0.1l-1.7-0.1L-17.3-21.2z"/>
		</g>
		<g transform="translate(493.16 322.76)">
			<path class="st2" d="M-25.6-20.9l1.8,0.1v0.1h-1.9C-25.7-20.8-25.6-20.9-25.6-20.9"/>
		</g>
		<g transform="translate(489.06 321.06)">
			<path class="st2" d="M-22.3-19.5h0.4c0,0,0.1,0,0.2-0.2c0,0,0-0.2-0.1-0.2h-0.5h-0.1c0,0-0.1,0-0.1,0.2
				C-22.4-19.6-22.4-19.5-22.3-19.5"/>
		</g>
		<g transform="translate(491.83 323.22)">
			<path class="st2" d="M-24.6-21.3l-0.1-0.3c0,0,0.1-0.1,0.2-0.1c0,0,0.1,0,0.2,0.1l0.1,0.3c0,0-0.1-0.1-0.2,0
				C-24.4-21.4-24.5-21.4-24.6-21.3"/>
		</g>
		<g transform="translate(492.86 321.26)">
			<path class="st2" d="M-25.3-19.7h0.3l0.1,0.2c0,0,0-0.1,0.2-0.1h0.2v-0.2c0,0,0.1-0.1,0-0.2c0,0,0-0.1-0.2-0.1h-0.5
				c0,0-0.1-0.1-0.2,0l-0.1,0.1c0,0,0.1,0.2-0.1,0.2c0,0,0,0-0.1,0h-0.2c0,0,0,0.2,0.2,0.2l0,0v-0.2C-25.6-19.6-25.5-19.7-25.3-19.7
				C-25.5-19.8-25.4-19.8-25.3-19.7"/>
		</g>
		<g transform="translate(488.93 321.74)">
			<path class="st2" d="M-22.2-20.1v-0.2c0,0,0,0,0-0.1l0,0l0,0l-0.1-0.3c0,0,0.1-0.1,0.1,0v0.1c0,0-0.1,0.1-0.1,0.2
				c0,0,0,0.1,0.1,0.1h0.1L-22.2-20.1C-22.1-20.1-22.2-20.1-22.2-20.1"/>
		</g>
		<g transform="translate(487.18 321.4)">
			<path class="st2" d="M-20.8-19.8v0.2h0.1L-20.8-19.8L-20.8-19.8z"/>
		</g>
		<g transform="translate(487.12 327.01)">
			<path class="st2" d="M-20.8-24.3l0.4-0.5l0,0L-20.8-24.3C-20.7-24.3-20.8-24.3-20.8-24.3"/>
		</g>
		<g transform="translate(486.69 327.58)">
			<path class="st2" d="M-20.4-24.8c0,0,0.1,0,0-0.2l0,0C-20.4-24.9-20.3-24.7-20.4-24.8"/>
		</g>
		<g transform="translate(489.74 324.1)">
			<path class="st2" d="M-22.9-21.9v0.2l0,0V-21.9L-22.9-21.9z"/>
		</g>
		<g transform="translate(483.84 324.8)">
			<path class="st2" d="M-18.1-22.5l0.2-0.2h0.6l0.1,0.2h-0.2h-0.1v0.1h-0.1v0.1h-0.1v0.1h-0.1v0.1v0.1h-0.1L-18-22H-18L-18.1-22.5z
				"/>
		</g>
		<g transform="translate(485.3 322.57)">
			<path class="st2" d="M-19.3-20.7L-19.3-20.7l0.1-0.2h0.2l0,0l0.1,0.2H-19.3z"/>
		</g>
		<g transform="translate(486.24 324.06)">
			<path class="st2" d="M-20-21.9l0.1,0.2h0.2l-0.1-0.2H-20z"/>
		</g>
		<g transform="translate(495.58 324.07)">
			<path class="st2" d="M-27.6-21.9l0.1,0.2l-0.2,0.1v0.1h-0.1v0.1h-0.1v0.1h-0.1l-0.1,0.1H-28v0.1h-0.1l-0.1-0.6l0.1-0.1
				L-27.6-21.9z"/>
		</g>
		<g transform="translate(490.46 321.99)">
			<path class="st2" d="M-23.4-20.2l-0.2,0.2h0.4l-0.1-0.1l0.1-0.1C-23.3-20.2-23.3-20.1-23.4-20.2"/>
		</g>
		<g transform="translate(496.35 319.48)">
			<path class="st2" d="M-28.2-18.2h0.2l-0.2,0.2h-0.2C-28.2-18.1-28.2-18.1-28.2-18.2L-28.2-18.2z"/>
		</g>
		<g transform="translate(497.61 319.7)">
			<path class="st2" d="M-29.2-18.4L-29.2-18.4L-29.2-18.4l0.2,0.2l0,0v0.1l0.1,0.1v0.2l0,0l-0.1,0.1h-0.1l-0.1-0.1v-0.2l-0.1-0.1
				L-29.2-18.4L-29.2-18.4L-29.2-18.4z"/>
		</g>
		<g transform="translate(499.63 321.47)">
			<path class="st2" d="M-30.8-19.8V-20l-0.1-0.1l-0.1-0.2l-0.1-0.1l-0.1-0.2h0.2v0.1l0.1,0.1v0.1v0.1V-19.8L-30.8-19.8z"/>
		</g>
		<g transform="translate(498.68 322.6)">
			<path class="st2" d="M-30.1-20.7l1.1,0.1l0,0L-30.1-20.7L-30.1-20.7z"/>
		</g>
		<g transform="translate(504.21 316.05)">
			<path class="st2" d="M-34.5-15.5l1.1,0.2h-0.1L-34.5-15.5L-34.5-15.5z"/>
		</g>
		<g transform="translate(472.86 322.37)">
			<path class="st2" d="M-9.2-20.5h0.4v0.1L-9.2-20.5L-9.2-20.5z"/>
		</g>
		<g transform="translate(475.38 322.49)">
			<path class="st2" d="M-11.3-20.6h0.4v0.1L-11.3-20.6L-11.3-20.6z"/>
		</g>
		<g transform="translate(478.41 322.62)">
			<path class="st2" d="M-13.8-20.8h0.4v0.1L-13.8-20.8L-13.8-20.8z"/>
		</g>
		<g transform="translate(481.01 322.72)">
			<path class="st2" d="M-15.8-20.9h0.4v0.1L-15.8-20.9L-15.8-20.9z"/>
		</g>
		<g transform="translate(480.74 312.95)">
			<path class="st2" d="M-15.6-13l1.1,0.2c0,0,0,0.1-0.1,0.1L-15.6-13C-15.7-12.9-15.6-12.9-15.6-13"/>
		</g>
		<g transform="translate(473.16 312.08)">
			<path class="st2" d="M-9.5-12.3l0.6,0.1h0.1l0.6,0.1v0.1L-9.5-12.3C-9.5-12.2-9.5-12.3-9.5-12.3"/>
		</g>
		<g transform="translate(472.91 323.53)">
			<path class="st2" d="M-9.3-21.5h0.2l0.1,0.1h0.1l0,0L-9.3-21.5L-9.3-21.5z"/>
		</g>
		<g transform="translate(472.69 329.62)">
			<path class="st2" d="M-9.1-26.4h0.7v0.1L-9.1-26.4L-9.1-26.4z"/>
		</g>
		<g transform="translate(476.97 329.53)">
			<path class="st2" d="M-12.6-26.4h0.7v0.1L-12.6-26.4L-12.6-26.4z"/>
		</g>
		<g transform="translate(493.78 328.29)">
			<path class="st2" d="M-26.1-25.3h0.5v0.1l0,0L-26.1-25.3C-26.1-25.2-26.2-25.3-26.1-25.3"/>
		</g>
		<g transform="translate(496.59 328.1)">
			<path class="st2" d="M-28.4-25.2h0.5c0,0,0,0.1-0.1,0.1L-28.4-25.2C-28.3-25.1-28.4-25.1-28.4-25.2"/>
		</g>
		<g transform="translate(481.18 320.52)">
			<path class="st2" d="M-16-19.1L-16-19.1l0.1,0.2H-16V-19.1z"/>
		</g>
		<g transform="translate(478.57 318.52)">
			<path class="st2" d="M-13.9-17.5h0.2v-0.1L-13.9-17.5L-13.9-17.5z"/>
		</g>
		<g transform="translate(489.39 320.2)">
			<path class="st3" d="M-22.6-18.8c0-0.1,0-0.2-0.1-0.2c-0.1,0-0.1,0.1-0.1,0.2c0,0.1,0,0.2,0.1,0.2
				C-22.6-18.7-22.6-18.8-22.6-18.8"/>
		</g>
		<g transform="translate(491.8 323.08)">
			<path class="st3" d="M-24.5-21.2l-0.1-0.3c0,0,0,0,0.1-0.1V-21.2C-24.4-21.2-24.5-21.2-24.5-21.2"/>
		</g>
		<g transform="translate(494.73 322.1)">
			<path class="st3" d="M-26.9-20.3l-0.1-0.2c0,0,0,0,0.1-0.1V-20.3C-26.8-20.4-26.9-20.3-26.9-20.3"/>
		</g>
		<g transform="translate(492.06 319.51)">
			<path class="st3" d="M-24.7-18.3c-0.1,0.1,0,0.2,0,0.2l-0.5,0.4l-0.1,0.1h-0.5l-0.1-0.2c0.2-0.1,0.2,0,0.2,0l0,0l0,0l0.1-0.1
				v-0.1h-0.1l-0.1-0.3l0.1-0.1c0.1,0,0.2,0,0.2,0v0.1l0,0c0.1-0.1,0.2,0,0.2,0v0.1h-0.2h-0.1c-0.1,0.1-0.1,0.2-0.1,0.2
				c0,0.2,0.1,0.2,0.1,0.2h0.3l0,0c0.1,0,0.1,0,0.1,0C-24.8-18.1-24.8-18.2-24.7-18.3L-24.7-18.3z M-25.1-18L-25.1-18L-25.1-18
				L-25.1-18L-25.1-18z"/>
		</g>
		<g transform="translate(488.01 324.06)">
			<path class="st3" d="M-21.5-21.9l-0.1,0.2l0,0l-0.2,0.2h-0.1c0,0-0.1,0.1,0,0.2l0,0c0,0-0.2,0-0.1,0.1l0.1,0.1l0,0v-0.1
				c0,0,0.1,0,0.2-0.1l0.1-0.1l0.2-0.2v0.1c0,0,0.1,0,0.1-0.1h0.1v-0.1c0,0,0.1,0,0-0.1V-22L-21.5-21.9z"/>
		</g>
		<g transform="translate(483.84 324.8)">
			<path class="st3" d="M-18.1-22.5l0.2-0.2l0.2,0.6l-0.1,0.2H-18L-18.1-22.5z"/>
		</g>
		<g transform="translate(485.68 326.82)">
			<path class="st3" d="M-19.6-24.1l-0.2-0.6h0.1L-19.6-24.1L-19.6-24.1z"/>
		</g>
		<g transform="translate(486.18 326.24)">
			<path class="st3" d="M-20-23.7L-20-23.7L-20-23.7l-0.1-0.4h-0.1L-20-23.7z"/>
		</g>
		<g transform="translate(492.2 324.62)">
			<path class="st3" d="M-24.8-22.3L-24.8-22.3l0.2,0.6v0.1h-0.1L-24.8-22.3z"/>
		</g>
		<g transform="translate(493.51 327.46)">
			<path class="st3" d="M-25.9-24.7l-0.2-0.6h0.1L-25.9-24.7L-25.9-24.7z"/>
		</g>
		<g transform="translate(493.95 326.93)">
			<path class="st3" d="M-26.3-24.2v-0.2l-0.1-0.4h-0.1L-26.3-24.2z"/>
		</g>
		<g transform="translate(494.45 326.2)">
			<path class="st3" d="M-26.7-23.6l-0.1-0.4h0.1V-23.6L-26.7-23.6z"/>
		</g>
		<g transform="translate(494.98 325.54)">
			<path class="st3" d="M-27.1-23.1l-0.1-0.3h0.1V-23.1L-27.1-23.1"/>
		</g>
		<g transform="translate(494.27 322.31)">
			<path class="st3" d="M-26.5-20.5L-26.5-20.5L-26.5-20.5L-26.5-20.5L-26.5-20.5z"/>
		</g>
		<g transform="translate(486.58 325.33)">
			<path class="st3" d="M-20.3-23L-20.3-23L-20.3-23L-20.3-23L-20.3-23z"/>
		</g>
		<g transform="translate(489.63 321.14)">
			<path class="st3" d="M-22.8-19.6L-22.8-19.6L-22.8-19.6L-22.8-19.6L-22.8-19.6z"/>
		</g>
		<g transform="translate(495.7 319.65)">
			<path class="st3" d="M-27.7-18.4L-27.7-18.4L-27.7-18.4L-27.7-18.4C-27.6-18.3-27.7-18.4-27.7-18.4"/>
		</g>
		<g transform="translate(497.81 322.45)">
			<path class="st3" d="M-29.4-20.6h0.2l0,0H-29.4L-29.4-20.6L-29.4-20.6z"/>
		</g>
		<g transform="translate(497.42 321.41)">
			<path class="st3" d="M-29-19.8h0.2l0.1,0.1L-29-19.8L-29-19.8z"/>
		</g>
		<g transform="translate(499.47 320.82)">
			<path class="st3" d="M-30.7-19.4h0.2l-0.2,0.2V-19.4z"/>
		</g>
		<g transform="translate(503.81 316.16)">
			<path class="st3" d="M-34.2-15.6C-34.2-15.6-34.1-15.6-34.2-15.6L-34.2-15.6C-34.1-15.6-34.2-15.7-34.2-15.6"/>
		</g>
		<g transform="translate(474.1 322.85)">
			<path class="st3" d="M-10.3-21L-10.3-21l0.1,0.2l-0.1-0.1V-21z"/>
		</g>
		<g transform="translate(473.12 312.36)">
			<path class="st3" d="M-9.4-12.5L-9.4-12.5C-9.5-12.7-9.5-12.7-9.4-12.5C-9.5-12.5-9.5-12.5-9.4-12.5"/>
		</g>
		<g transform="translate(480.63 312.55)">
			<path class="st3" d="M-15.5-12.7C-15.5-12.7-15.4-12.5-15.5-12.7C-15.6-12.5-15.6-12.6-15.5-12.7"/>
		</g>
		<g transform="translate(475.29 323.93)">
			<path class="st3" d="M-11.2-21.8h0.4l0,0H-11.2L-11.2-21.8z"/>
		</g>
		<g transform="translate(478.05 323.97)">
			<path class="st3" d="M-13.5-21.8h0.4l0,0H-13.5L-13.5-21.8z"/>
		</g>
		<g transform="translate(480.54 324.02)">
			<path class="st3" d="M-15.5-21.9h0.3l0,0H-15.5L-15.5-21.9z"/>
		</g>
		<g transform="translate(473.99 323.61)">
			<path class="st3" d="M-10.2-21.6L-10.2-21.6l0.2,0.1l0,0L-10.2-21.6L-10.2-21.6z"/>
		</g>
		<g transform="translate(475.39 322.16)">
			<path class="st3" d="M-11.3-20.4v-0.2l-0.1-0.1L-11.3-20.4L-11.3-20.4"/>
		</g>
		<g transform="translate(480.97 322.6)">
			<path class="st3" d="M-15.8-20.7L-15.8-20.7v-0.4l0.1,0.1L-15.8-20.7z"/>
		</g>
		<g transform="translate(489.07 319.3)">
			<path class="st4" d="M-22.4-18.1h0.4c0,0,0.1,0,0.1,0.1L-22.4-18.1C-22.3-18-22.3-18.1-22.4-18.1"/>
		</g>
		<g transform="translate(493.16 319.89)">
			<path class="st4" d="M-25.6-18.5h0.6c0,0-0.1-0.1-0.2-0.1L-25.6-18.5L-25.6-18.5z"/>
		</g>
		<g transform="translate(483.01 322.51)">
			<path class="st4" d="M-17.5-20.7l1.7,0.1l0,0L-17.5-20.7L-17.5-20.7z"/>
		</g>
		<g transform="translate(493.16 322.76)">
			<path class="st4" d="M-25.6-20.9l1.8,0.1l0,0L-25.6-20.9L-25.6-20.9z"/>
		</g>
		<g transform="translate(493.05 319.82)">
			<path class="st4" d="M-25.5-18.5c0-0.1-0.1-0.1-0.2-0.1c-0.1,0-0.1,0.1-0.1,0.2c0,0.1,0.1,0.1,0.2,0.1
				C-25.5-18.4-25.5-18.4-25.5-18.5"/>
		</g>
		<g transform="translate(485.55 321.33)">
			<path class="st4" d="M-19.5-19.7l0.1,0.2h0.2l-0.1-0.2H-19.5z"/>
		</g>
		<g transform="translate(494.64 321.76)">
			<path class="st4" d="M-26.8-20.1L-26.8-20.1v0.2h0.2V-20C-26.7-19.9-26.8-19.9-26.8-20.1L-26.8-20.1z"/>
		</g>
		<g transform="translate(494.42 322.26)">
			<path class="st4" d="M-26.6-20.4L-26.6-20.4L-26.6-20.4L-26.6-20.4L-26.6-20.4z"/>
		</g>
		<g transform="translate(496.27 319.12)">
			<path class="st4" d="M-28.1-18h0.3v0.1L-28.1-18L-28.1-18z"/>
		</g>
		<g transform="translate(495.78 318.11)">
			<path class="st4" d="M-27.8-17.1h0.2v0.1l0.1,0.1h-0.2l0,0L-27.8-17.1L-27.8-17.1z"/>
		</g>
		<g transform="translate(497 320.45)">
			<path class="st4" d="M-28.7-19h0.2v0.1L-28.7-19L-28.7-19z"/>
		</g>
		<g transform="translate(497.42 321.41)">
			<path class="st4" d="M-29-19.8h0.2v-0.1L-29-19.8L-29-19.8z"/>
		</g>
		<g transform="translate(498.3 318.28)">
			<path class="st4" d="M-29.8-17.3h0.2v0.1v0.1h-0.2V-17.3z"/>
		</g>
		<g transform="translate(498.83 319.69)">
			<path class="st4" d="M-30.2-18.4h0.2v0.1L-30.2-18.4L-30.2-18.4z"/>
		</g>
		<g transform="translate(499.03 320.3)">
			<path class="st4" d="M-30.3-18.9h0.2l0,0H-30.3L-30.3-18.9z"/>
		</g>
		<g transform="translate(504.18 315.63)">
			<path class="st4" d="M-34.5-15.1l0.2,0.1h0.1L-34-15h0.1h0.2h0.1h0.2c0,0,0,0,0,0.1l-0.6-0.1L-34.5-15.1L-34.5-15.1z"/>
		</g>
		<g transform="translate(473.04 311.72)">
			<path class="st4" d="M-9.4-12l0.5,0.1c0,0,0.1,0,0.2,0c0,0,0.1,0,0.1,0.1l0.5,0.1v0.1l-0.6-0.1h-0.1L-9.4-12
				C-9.3-11.9-9.4-12-9.4-12"/>
		</g>
		<g transform="translate(480.63 312.55)">
			<path class="st4" d="M-15.5-12.7l0.4,0.1c0,0,0.2-0.1,0.2,0l0.5,0.1c0,0,0.1,0.1,0,0.1L-15.5-12.7L-15.5-12.7z"/>
		</g>
		<g transform="translate(487.91 319.14)">
			<path class="st4" d="M-21.4-18L-21.4-18c0,0,0.1-0.1,0.2,0l0,0C-21.2-18-21.3-18.1-21.4-18"/>
		</g>
		<g transform="translate(489.12 319.25)">
			<path class="st4" d="M-22.4-18.1c0,0,0.1-0.1,0.2,0l0,0C-22.2-18.1-22.3-18.1-22.4-18.1C-22.4-18-22.4-18-22.4-18.1"/>
		</g>
		<g transform="translate(472.35 316.63)">
			<path class="st4" d="M-8.8-16L-8.8-16l0.1,0.3l-0.1-0.2V-16z"/>
		</g>
		<g transform="translate(479.08 319.09)">
			<path class="st4" d="M-14.3-17.9l0.1-0.3h-0.2v0.2L-14.3-17.9L-14.3-17.9z"/>
		</g>
		<g transform="translate(486.92 321.64)">
			<path class="st4" d="M-20.6-20c0,0,0.2-0.1,0.2,0l0,0C-20.4-20-20.5-20.1-20.6-20L-20.6-20z"/>
		</g>
		<g transform="translate(474.47 323.28)">
			<path class="st3" d="M-10.6-21.3l1.5,0.1v-0.1h1.9c0,0,0.1,0,0.2,0h1.9l-0.1,0.1h-3.8L-10.6-21.3L-10.6-21.3L-10.6-21.3z"/>
		</g>
		<g transform="translate(492.94 321.27)">
			<path class="st3" d="M-25.4-19.7c0,0,0.1-0.1,0.1-0.2h0.6v0.1l0,0c0,0-0.1-0.1-0.2,0c0,0-0.1,0-0.2,0.1l0,0H-25.4z"/>
		</g>
		<g transform="translate(489.06 321.06)">
			<path class="st3" d="M-22.3-19.5h0.4c0,0,0.1,0,0.1-0.1c0,0,0,0,0-0.1h-0.5C-22.3-19.6-22.3-19.6-22.3-19.5"/>
		</g>
		<g transform="translate(502.02 324.12)">
			<path class="st3" d="M-32.7-22h0.2c0,0,0.1,0,0.1-0.1l0.1-0.1h0.2l0,0v-0.1l0,0h-0.3v0.1L-32.7-22z"/>
		</g>
		<g transform="translate(493.21 322.89)">
			<path class="st1" d="M-25.6-21c0,0-0.1-0.1-0.2,0c-0.1,0-0.2,0.1-0.1,0.1C-25.9-20.9-25.8-20.8-25.6-21L-25.6-21"/>
		</g>
		<g transform="translate(496.19 321.81)">
			<path class="st1" d="M-28.1-20.1c0,0-0.1,0-0.2,0c-0.1,0-0.2,0.1-0.2,0.1s0.1,0,0.2,0C-28.1-20-28.1-20.1-28.1-20.1"/>
		</g>
		<g transform="translate(474.41 323.65)">
			<path class="st1" d="M-10.5-21.6H-9v0.1L-10.5-21.6L-10.5-21.6z"/>
		</g>
		<g transform="translate(482.46 323.69)">
			<path class="st1" d="M-17-21.6l3.8,0.1l-0.1,0.1L-17-21.6L-17-21.6z"/>
		</g>
		<g transform="translate(493.11 320.93)">
			<path class="st1" d="M-25.5-19.4h0.3l0,0l0,0H-25.5L-25.5-19.4z"/>
		</g>
		<g transform="translate(491.5 320.89)">
			<path class="st1" d="M-24.3-19.4C-24.3-19.4-24.3-19.3-24.3-19.4l-0.5,0.1c0,0,0,0,0.1-0.1H-24.3z"/>
		</g>
		<g transform="translate(489.82 321.75)">
			<path class="st1" d="M-22.9-20.1c0,0-0.1,0-0.2,0s-0.1,0.1-0.1,0.1S-23.1-20-22.9-20.1C-23-20-22.9-20-22.9-20.1"/>
		</g>
		<g transform="translate(472.69 329.62)">
			<path class="st1" d="M-9.1-26.4h0.3l0.1-1.1h-0.4V-26.4z"/>
		</g>
		<g transform="translate(474.78 329.56)">
			<path class="st1" d="M-10.8-26.4h0.3l0.2-1.1h-0.4L-10.8-26.4z"/>
		</g>
		<g transform="translate(476.97 329.53)">
			<path class="st1" d="M-12.6-26.4h0.3l0.2-1.1h-0.4L-12.6-26.4z"/>
		</g>
		<g transform="translate(479.04 329.44)">
			<path class="st1" d="M-14.2-26.3h0.3l0.3-1h-0.3L-14.2-26.3z"/>
		</g>
		<g transform="translate(493.78 328.29)">
			<path class="st1" d="M-26.1-25.3h0.2l0.6-0.8h-0.2L-26.1-25.3z"/>
		</g>
		<g transform="translate(495.31 328.19)">
			<path class="st1" d="M-27.3-25.3h0.2l0.7-0.8h-0.2L-27.3-25.3z"/>
		</g>
		<g transform="translate(496.67 328.08)">
			<path class="st1" d="M-28.4-25.2h0.2l0.6-0.7h-0.2L-28.4-25.2z"/>
		</g>
		<g transform="translate(498.11 327.96)">
			<path class="st1" d="M-29.6-25.1h0.2l0.7-0.7h-0.2L-29.6-25.1z"/>
		</g>
		<g transform="translate(483.94 325.25)">
			<path class="st1" d="M-18.2-22.9v0.2h-0.2L-18.2-22.9z"/>
		</g>
		<g transform="translate(486.42 325.88)">
			<path class="st1" d="M-20.1-23.4L-20.1-23.4l0.2-0.2h-0.2L-20.1-23.4L-20.1-23.4L-20.1-23.4L-20.1-23.4L-20.1-23.4z"/>
		</g>
		<g transform="translate(488.35 325.97)">
			<path class="st1" d="M-21.7-23.5h0.5l0.2-0.2h-0.5L-21.7-23.5z"/>
		</g>
		<g transform="translate(487.11 327.06)">
			<path class="st1" d="M-20.8-24.3l0.4,0.2l0.1-0.2l-0.4-0.2C-20.6-24.4-20.7-24.3-20.8-24.3"/>
		</g>
		<g transform="translate(487.78 319.2)">
			<path class="st1" d="M-21.3-18L-21.3-18l0.1,0.3l0,0L-21.3-18z"/>
		</g>
		<g transform="translate(488.37 320.81)">
			<path class="st1" d="M-21.7-19.3l0.1,0.2c0,0,0,0,0-0.1L-21.7-19.3L-21.7-19.3z"/>
		</g>
		<g transform="translate(491.42 321.45)">
			<path class="st1" d="M-24.2-19.8l0.1,0.3c0,0,0,0,0-0.1L-24.2-19.8C-24.2-19.9-24.2-19.9-24.2-19.8"/>
		</g>
		<g transform="translate(494.5 321.2)">
			<path class="st1" d="M-26.7-19.6L-26.7-19.6l0.1,0.2l0,0L-26.7-19.6z"/>
		</g>
		<g transform="translate(490.39 324.8)">
			<path class="st1" d="M-23.4-22.5L-23.4-22.5c-0.2,0-0.2,0-0.2,0C-23.6-22.5-23.5-22.5-23.4-22.5C-23.4-22.5-23.4-22.5-23.4-22.5"
				/>
		</g>
		<g transform="translate(486.65 326.86)">
			<path class="st1" d="M-20.4-24.1l0.4-0.6l0,0c0,0,0,0,0.1,0.1L-20.4-24.1L-20.4-24.1"/>
		</g>
		<g transform="translate(486.6 326.87)">
			<path class="st1" d="M-20.3-24.2L-20.3-24.2C-20.3-24.1-20.3-24-20.3-24.2L-20.3-24.2z"/>
		</g>
		<g transform="translate(489.38 324.1)">
			<path class="st1" d="M-22.6-21.9L-22.6-21.9L-22.6-21.9L-22.6-21.9v0.2l0,0V-21.9L-22.6-21.9z"/>
		</g>
		<g transform="translate(496.12 320.06)">
			<path class="st1" d="M-28-18.7h0.2H-28L-28-18.7L-28-18.7z"/>
		</g>
		<g transform="translate(502.21 323.9)">
			<path class="st1" d="M-32.9-21.8h0.2C-32.8-21.8-32.8-21.7-32.9-21.8L-32.9-21.8L-32.9-21.8L-32.9-21.8z"/>
		</g>
		<g transform="translate(502.52 323.11)">
			<path class="st1" d="M-33.2-21.2h0.3l0,0H-33.2L-33.2-21.2z"/>
		</g>
		<g transform="translate(496.59 328.1)">
			<path class="st1" d="M-28.4-25.2C-28.4-25.2-28.3-25.1-28.4-25.2h0.4c0,0,0.1,0,0.1-0.1l0,0c0,0,0,0.1-0.1,0.1H-28.4
				C-28.3-25.1-28.4-25.1-28.4-25.2"/>
		</g>
		<g transform="translate(496.43 328.13)">
			<path class="st1" d="M-28.3-25.2C-28.3-25.2-28.3-25.1-28.3-25.2l-0.5,0.1c0,0,0,0,0-0.1l0,0c0,0,0,0.1,0.1,0.1L-28.3-25.2
				C-28.3-25.1-28.2-25.1-28.3-25.2"/>
		</g>
		<g transform="translate(472.73 329.88)">
			<path class="st1" d="M-9.1-26.6h0.7l0,0H-9.1L-9.1-26.6z"/>
		</g>
		<g transform="translate(476.97 329.76)">
			<path class="st1" d="M-12.6-26.6h0.7l0,0H-12.6L-12.6-26.6z"/>
		</g>
		<g transform="translate(509.78 317.06)">
			<path d="M-39-16.3C-39-16.3-39-16.2-39-16.3l-1.1,1.1v0.1l0,0h-0.2l-0.1,0.1l0,0c0,0,0,0.1-0.1,0.1l-0.7,0.7c0,0,0,0.1-0.1,0.1
				h-0.4c0,0-0.1,0-0.1-0.1l0,0l0,0v0.1l0,0c0,0,0,0.1-0.1,0.1h-0.5l0,0c0,0,0,0,0-0.1l0,0l0.6-0.8h-0.3l0.1,0.2H-42v0.1h-0.1v0.1
				h-0.1v0.1h-0.1l-0.1,0.1h-0.1v0.1h-0.1l-0.1-0.6l0,0l0.1-0.1h-0.4l0,0l0,0l0,0l0,0l0,0l0,0c0,0,0,0-0.1,0.1h0.1h0.2l-0.2,0.2
				h-0.5c0,0,0,0.1-0.1,0.1l0.4,0.2l0.1,0.2l-0.1,0.1l-0.4-0.2l0,0v0.1c0,0-0.1,0-0.2,0c0,0-0.1,0-0.1-0.1c0,0,0-0.1,0.1-0.1
				c0,0-0.1-0.1,0-0.1l0,0l0,0l0,0l0,0h-0.1l0,0v0.1l0,0l0,0l0,0h-0.1l-0.1,0.2h-0.1l-0.1-0.4h-0.2l0.2-0.2v-0.1l0.1-0.2h-0.4
				l-0.3,1l0,0v0.1h-0.7v-0.1l0.2-1.1h-0.2l-0.2,1.3v0.1h-0.7v-0.1l0.1-1.2h0.2v-0.1v-0.1l0,0l0,0h-0.2v-0.8l-0.1-0.2l-0.1-0.2h0.2
				v-0.8l0,0l0,0c0,0-0.1,0,0-0.1c0,0,0,0,0.1,0c0,0,0,0,0.1,0l0.5,0.1c0,0,0.2-0.1,0.2,0l0.5,0.1l0,0c0,0,0.1,0.1,0,0.2l-0.2,0.7
				h0.2l0.2-0.8v-0.1h0.1l0.4,0.1c0,0,0.1-0.1,0.2,0l0.5,0.1l0,0c0,0,0.1,0,0.1,0.1l0,0c0,0,0,0-0.1,0.1l-0.6,1.6h0.4l0.1-0.1v-0.2
				h0.2l0,0c0,0,0.2-0.1,0.2,0l0,0l0,0l0.1-0.1l0,0l0,0l-0.1-0.3l0,0c0,0,0.1-0.2,0.2-0.1l0,0v0.1l0,0c0,0,0,0,0.1,0h0.1l0,0v0.1
				h0.2c0,0,0.1,0,0.1,0.1l0.1-0.1l0,0l0,0l0,0l0,0l0,0l0,0c0.1,0,0.1,0,0.1,0l0,0h0.5l0,0l0,0h0.1l0.1-0.1l-0.1-0.1v-0.2h0.2v0.1
				l0.1,0.1l0,0h0.1l0,0v0.1l0,0l0,0l0,0v0.1v0.1l0,0l-0.1,0.2l0,0v0.1l0.1,0.1v0.2l0,0l0.2-0.2v-0.2l-0.1-0.1l-0.1-0.2l-0.1-0.1
				l-0.1-0.2h0.2v0.2l0.1,0.1v0.1v0.1l0.6-0.8v-0.1c0,0,0,0,0-0.1l0,0c0,0,0,0,0.1,0h0.2c0,0,0.1,0,0.2,0h0.2h0.1h0.2h0.1L-39-16.3
				L-39-16.3C-39-16.4-39-16.3-39-16.3 M-39.2-16.4L-39.2-16.4L-39.2-16.4L-39.2-16.4L-39.2-16.4L-39.2-16.4
				C-39.3-16.4-39.3-16.3-39.2-16.4C-39.3-16.3-39.2-16.3-39.2-16.4L-39.2-16.4L-39.2-16.4 M-39.6-16.4L-39.6-16.4L-39.6-16.4
				L-39.6-16.4l0.5,0.2l0,0L-39.6-16.4z M-39.8-16.5L-39.8-16.5L-39.8-16.5C-39.8-16.5-39.8-16.5-39.8-16.5
				C-39.9-16.5-39.9-16.5-39.8-16.5C-39.9-16.5-39.9-16.5-39.8-16.5C-39.9-16.5-39.9-16.5-39.8-16.5C-39.9-16.5-39.9-16.5-39.8-16.5
				C-39.9-16.5-39.9-16.5-39.8-16.5L-39.8-16.5L-39.8-16.5L-39.8-16.5 M-39.8-16.5C-39.8-16.5-39.9-16.5-39.8-16.5
				C-39.9-16.5-39.9-16.5-39.8-16.5L-39.8-16.5l-0.2-0.1l0,0l0,0l0.4,0.1l0,0l0,0l0,0H-39.8z M-41.3-15.4L-41.3-15.4l0.2,0.1v-0.1
				H-41.3z M-41.3-15.4L-41.3-15.4L-41.3-15.4L-41.3-15.4L-41.3-15.4l-0.1-0.2l0,0h-0.2c0,0.1,0,0.2,0,0.2v0.2l0,0l0,0
				c0,0-0.1,0.1-0.2,0.1c0,0,0,0-0.1,0v0.1h0.5l-0.1-0.1L-41.3-15.4z M-41.3-15.6h-0.2l0,0v0.1L-41.3-15.6L-41.3-15.6z M-41.3-15.8
				h-0.2h-0.1H-41.3L-41.3-15.8z M-41.7-15.7L-41.7-15.7L-41.7-15.7l0.2,0.1l0.1-0.1H-41.7z M-41.8-15.8h-0.5c0.1,0.2,0,0.2,0,0.3
				h0.3l0,0l0,0c0,0,0.1-0.1,0.2-0.1c0.1,0,0.1,0,0.2,0l0,0l0,0c0,0,0-0.1,0-0.2l0,0C-41.7-15.6-41.7-15.7-41.8-15.8 M-42.3-15.8
				L-42.3-15.8L-42.3-15.8C-42.3-15.8-42.4-15.8-42.3-15.8C-42.4-15.8-42.4-15.8-42.3-15.8L-42.3-15.8c-0.1,0-0.2,0.1-0.1,0.2
				c0,0.1,0.1,0.1,0.2,0.1C-42.2-15.6-42.2-15.6-42.3-15.8C-42.2-15.8-42.2-15.8-42.3-15.8L-42.3-15.8z M-42.6-15.6
				c0,0-0.1,0.1-0.2,0.1h-0.1c0,0,0,0.1,0.1,0.2h0.1v-0.1l0,0C-42.6-15.5-42.5-15.6-42.6-15.6L-42.6-15.6L-42.6-15.6
				c0.1,0,0.2,0,0.2,0.1c0,0,0.1-0.1,0.1-0.2c0,0.1,0,0.2-0.1,0.2S-42.5-15.6-42.6-15.6l0.1-0.2c0,0,0,0-0.1,0
				C-42.5-15.7-42.5-15.6-42.6-15.6 M-42.8-15.5L-42.8-15.5L-42.8-15.5L-42.8-15.5c0,0.1,0.1,0.2,0.1,0.2c0.1,0,0.1,0,0.2,0l0,0
				c-0.1,0-0.1,0-0.2,0C-42.7-15.4-42.7-15.5-42.8-15.5L-42.8-15.5z M-43.1-15.8L-43.1-15.8L-43.1-15.8L-43.1-15.8L-43.1-15.8
				L-43.1-15.8L-43.1-15.8c-0.1,0-0.1,0.1-0.1,0.2s0,0.1,0,0.1s0,0.1,0.1,0.1l0,0c0,0,0.1-0.1,0.1-0.2C-43-15.7-43-15.8-43.1-15.8
				L-43.1-15.8 M-43.1-15.6L-43.1-15.6L-43.1-15.6L-43.1-15.6L-43.1-15.6L-43.1-15.6L-43.1-15.6z M-43.1-15.6L-43.1-15.6
				c0-0.1,0-0.2,0-0.2C-43.2-15.8-43.2-15.7-43.1-15.6L-43.1-15.6C-43.2-15.6-43.1-15.6-43.1-15.6 M-43.2-15.7
				C-43.2-15.7-43.1-15.7-43.2-15.7c0.1-0.1,0.1-0.1,0.1-0.2C-43.2-15.8-43.2-15.8-43.2-15.7L-43.2-15.7z M-43.1-15.5L-43.1-15.5
				C-43.1-15.5-43.1-15.5-43.1-15.5C-43.1-15.6-43.1-15.6-43.1-15.5C-43.1-15.6-43.1-15.6-43.1-15.5L-43.1-15.5L-43.1-15.5
				L-43.1-15.5C-43.1-15.4-43.1-15.4-43.1-15.5C-43-15.5-43-15.5-43.1-15.5L-43.1-15.5L-43.1-15.5z M-44.2-15.2L-44.2-15.2l1.7,0.1
				l0,0l0,0v-0.1H-44.2z M-44.2-16.9L-44.2-16.9l-0.4,1.3l0,0v0.1L-44.2-16.9L-44.2-16.9z M-44.2-16.9L-44.2-16.9l0.6,0.1l0,0
				L-44.2-16.9L-44.2-16.9C-44.2-17-44.2-17-44.2-16.9C-44.2-17-44.2-17-44.2-16.9l-0.4-0.1l0,0L-44.2-16.9L-44.2-16.9z M-44.1-17.1
				L-44.1-17.1C-44.2-17.1-44.2-17.1-44.1-17.1C-44.2-17.1-44.2-17.1-44.1-17.1L-44.1-17.1C-44.2-17-44.2-17-44.1-17.1L-44.1-17.1
				L-44.1-17.1C-44.2-17-44.2-17-44.1-17.1C-44.2-17-44.1-17-44.1-17.1C-44.1-17-44.1-17-44.1-17.1L-44.1-17.1 M-44.6-15.6v0.2h0.1
				l0,0L-44.6-15.6z M-44.6-15.4v0.2h0.1L-44.6-15.4L-44.6-15.4z M-44.6-15.2L-44.6-15.2L-44.6-15.2L-44.6-15.2z M-44.7-15.2
				L-44.7-15.2L-44.7-15.2L-44.7-15.2L-44.7-15.2z M-45-15.9v-0.2h-0.2v0.1L-45-15.9z M-45.1-16L-45.1-16l-0.2,0.8h0.2l0.2-0.7
				L-45.1-16z M-45.6-17.1L-45.6-17.1l0.6,0.1l0,0L-45.6-17.1C-45.5-17.2-45.5-17.2-45.6-17.1C-45.6-17.2-45.6-17.2-45.6-17.1
				l-0.6-0.1c0,0,0,0,0,0.1H-45.6L-45.6-17.1z M-45.5-17.3L-45.5-17.3C-45.6-17.3-45.6-17.3-45.5-17.3
				C-45.6-17.3-45.6-17.3-45.5-17.3L-45.5-17.3C-45.6-17.2-45.6-17.2-45.5-17.3C-45.5-17.2-45.5-17.2-45.5-17.3
				C-45.5-17.2-45.5-17.2-45.5-17.3L-45.5-17.3 M-45.6-17.1l-0.2,1.5l0,0L-45.6-17.1L-45.6-17.1z M-45.7-15.6v0.2l0,0V-15.6
				L-45.7-15.6z M-45.7-15.2L-45.7-15.2L-45.7-15.2L-45.7-15.2L-45.7-15.2z M-45.7-15.2h0.4v-0.1L-45.7-15.2L-45.7-15.2z
				 M-45.7-15.2L-45.7-15.2L-45.7-15.2L-45.7-15.2L-45.7-15.2L-45.7-15.2L-45.7-15.2L-45.7-15.2z M-45.7-14.9l-0.1,1.1l0,0
				L-45.7-14.9L-45.7-14.9z M-45.9-13.9l0.1-1.1h-0.4v1.1H-45.9z M-45.8-14.9L-45.8-14.9L-45.8-14.9L-45.8-14.9L-45.8-14.9z
				 M-45.8-15L-45.8-15L-45.8-15L-45.8-15h0.5l0,0h0.2l0,0h0.4l0,0h0.1h0.3v-0.1l-1.5-0.1L-45.8-15L-45.8-15z M-45.4-13.9h0.3l0.2-1
				h-0.4L-45.4-13.9z M-45-13.9L-45-13.9l0.3-1.1l0,0h-0.1L-45-13.9z M-44.7-14.9h0.3l0,0H-44.7L-44.7-14.9z M-44.4-15.1L-44.4-15.1
				l0.2,0.1v-0.1H-44.4z M-44.8-15.1L-44.8-15.1l0.2,0.1v-0.1H-44.8z M-45.4-15.2L-45.4-15.2l0.6,0.1v-0.1H-45.4z M-45.4-15.1
				L-45.4-15.1l-0.2-0.1v0.1H-45.4z M-44.5-15.1L-44.5-15.1L-44.5-15.1L-44.5-15.1L-44.5-15.1z M-45.9-15.1L-45.9-15.1L-45.9-15.1
				L-45.9-15.1L-45.9-15.1L-45.9-15.1L-45.9-15.1z M-45.1-15.2h0.4v-0.1L-45.1-15.2L-45.1-15.2z M-44.6-15.2L-44.6-15.2l0.3,0.1
				v-0.1H-44.6z M-41.2-14.9l-0.6,0.7L-41.2-14.9L-41.2-14.9z M-41.6-14.2l0.7-0.7l0,0L-41.6-14.2L-41.6-14.2z M-41.5-14.2h0.2
				l0.6-0.7h-0.2L-41.5-14.2z M-41.3-14.2l0.3-0.4L-41.3-14.2L-41.3-14.2z M-40.9-14.9L-40.9-14.9L-40.9-14.9h0.3l0.1-0.1H-41
				l-0.1,0.1H-40.9z M-40.1-15.1L-40.1-15.1L-40.1-15.1h-0.3l0,0l0,0l0,0H-40.1z M-39.6-16.3l-1,1.1h0.2l1-1.1H-39.6z M-39.6-16.4
				L-39.6-16.4l-1,1.1l0,0L-39.6-16.4L-39.6-16.4z M-40.9-15.2L-40.9-15.2L-40.9-15.2l0.3,0.1v-0.1l0,0l0,0H-40.9L-40.9-15.2z
				 M-41.2-15.1h0.2l0,0v-0.1L-41.2-15.1L-41.2-15.1z M-39.3-16.3l-1,1.1l0,0L-39.3-16.3L-39.3-16.3z M-40.3-15.2L-40.3-15.2h0.2
				l0,0H-40.3z M-40.4-15.2h-0.2l0,0H-40.4L-40.4-15.2z M-40.5-15.2h-0.2v0.1l0,0L-40.5-15.2L-40.5-15.2z M-40.9-15.2L-40.9-15.2
				h0.2l0,0H-40.9z M-39.3-16.3l-1,1.1h0.2l1-1.1L-39.3-16.3z M-41.1-14.9L-41.1-14.9L-41.1-14.9h-0.2H-41.1z M-41.2-15.1
				L-41.2-15.1l-0.7-0.1l0,0l0,0h-0.2l0,0l0,0l0,0c0,0,0,0.1-0.1,0.1H-41.2z M-41.9-15.4L-41.9-15.4L-41.9-15.4L-41.9-15.4
				c0,0,0.1,0,0.2,0c0.1,0,0.1,0,0.2,0v-0.2C-41.7-15.6-41.8-15.6-41.9-15.4L-41.9-15.4z M-41.8-15.4
				C-41.8-15.4-41.9-15.3-41.8-15.4C-41.9-15.3-41.8-15.2-41.8-15.4c0.1,0.1,0.2,0,0.2,0C-41.7-15.4-41.8-15.4-41.8-15.4
				 M-41.9-15.3L-41.9-15.3L-41.9-15.3L-41.9-15.3L-41.9-15.3L-41.9-15.3l0.2,0.1v-0.1C-41.9-15.2-41.9-15.2-41.9-15.3 M-42.9-15.4
				L-42.9-15.4C-42.9-15.4-42.9-15.3-42.9-15.4c-0.2,0.1-0.2,0.1-0.2,0.1l0,0h0.5c0,0,0,0,0.1,0c-0.1,0-0.1,0-0.2,0
				C-42.8-15.3-42.8-15.4-42.9-15.4L-42.9-15.4z M-42.6-15.2L-42.6-15.2L-42.6-15.2L-42.6-15.2z M-42.5-15.5L-42.5-15.5v0.4l0.1-0.1
				c0.1,0,0.1,0,0.2,0l-0.1-0.2C-42.3-15.6-42.5-15.5-42.5-15.5 M-42.1-15.2L-42.1-15.2L-42.1-15.2l0.1-0.2h0.1v-0.1h-0.3
				L-42.1-15.2L-42.1-15.2z M-42.1-15.2L-42.1-15.2L-42.1-15.2L-42.1-15.2L-42.1-15.2z M-42.2-15.2c0,0-0.1,0-0.2,0
				c-0.1,0-0.1,0.1-0.1,0.1l0,0C-42.5-15.1-42.4-15.1-42.2-15.2C-42.2-15.1-42.2-15.2-42.2-15.2 M-43.2-15.2L-43.2-15.2L-43.2-15.2
				L-43.2-15.2c-0.2-0.1-0.2-0.1-0.2-0.1v0.1H-43.2L-43.2-15.2z M-43.5-15.2L-43.5-15.2l-0.1-0.2l0,0L-43.5-15.2z M-43.5-15.3
				C-43.4-15.3-43.4-15.3-43.5-15.3c0.1,0,0.2,0,0.2,0l0,0l0,0C-43.3-15.4-43.4-15.3-43.5-15.3L-43.5-15.3z M-43.1-15.2h0.6
				l-0.1-0.1L-43.1-15.2L-43.1-15.2z M-43-15.3C-42.9-15.3-42.9-15.4-43-15.3L-43-15.3L-43-15.3C-42.9-15.4-43-15.4-43-15.3
				C-43.1-15.4-43.1-15.3-43-15.3L-43-15.3L-43-15.3C-43.1-15.3-43.1-15.3-43-15.3 M-42.9-15.5L-42.9-15.5L-42.9-15.5
				C-42.8-15.5-42.8-15.5-42.9-15.5L-42.9-15.5L-42.9-15.5z M-41.7-15.7C-41.6-15.6-41.6-15.6-41.7-15.7l0.2,0.1l0,0L-41.7-15.7z
				 M-41.2-15.2h-0.2H-41.2L-41.2-15.2L-41.2-15.2L-41.2-15.2L-41.2-15.2L-41.2-15.2z M-41.2-15.2h0.2l0,0H-41.2L-41.2-15.2z
				 M-40.9-15.2l1-1.2l0,0L-40.9-15.2L-40.9-15.2z M-40.9-15.2h0.2l1-1.1h-0.2L-40.9-15.2z M-40.1-15.1h-0.3l0,0h0.2H-40.1
				L-40.1-15.1z M-40.2-15.1h-0.2l0,0l0,0l0,0H-40.2L-40.2-15.1z M-40.3-14.9C-40.3-15-40.3-15-40.3-14.9h-0.2l-0.1,0.1L-40.3-14.9
				L-40.3-14.9 M-40.4-14.9h-0.2l-0.6,0.7h0.2L-40.4-14.9z M-41.5-14.1h0.4c0.1,0,0.1-0.1,0.1-0.1L-41.5-14.1L-41.5-14.1
				 M-40.9-14.9h-0.2l-0.6,0.8h0.2L-40.9-14.9z M-42.1-14h0.5l0,0l0,0H-42.1L-42.1-14 M-42.1-14.1h0.2l0.6-0.8h-0.2L-42.1-14.1z
				 M-41.4-14.9L-41.4-14.9L-41.4-14.9l0.2-0.1h-1.1l0,0c-0.1,0-0.1,0-0.2,0h-1.8l0,0h-0.1v0.1l0,0l0,0v0.1l0,0l0,0h0.3l0,0h0.6l0,0
				h0.2l0,0h0.4l0,0l0,0h1.1l0,0L-41.4-14.9z M-43.9-14.9L-43.9-14.9l0.1,0.6h0.1L-43.9-14.9z M-43.5-14.6L-43.5-14.6L-43.5-14.6
				L-43.5-14.6L-43.5-14.6l0.1-0.2h-0.1V-14.6L-43.5-14.6L-43.5-14.6L-43.5-14.6L-43.5-14.6L-43.5-14.6L-43.5-14.6L-43.5-14.6z
				 M-43.2-14.6L-43.2-14.6L-43.2-14.6L-43.2-14.6C-43.1-14.7-43.2-14.6-43.2-14.6c-0.1-0.1-0.1-0.1-0.1-0.2l-0.1,0.1
				C-43.4-14.7-43.4-14.6-43.2-14.6C-43.3-14.6-43.2-14.6-43.2-14.6 M-42.9-14.8L-42.9-14.8l-0.2,0.1l0,0l-0.1,0.1h0.2V-14.8
				L-42.9-14.8L-42.9-14.8 M-42.9-14.9L-42.9-14.9L-42.9-14.9L-42.9-14.9L-42.9-14.9C-43-14.8-42.9-14.8-42.9-14.9 M-43-14.8
				C-43-14.8-43.1-14.8-43-14.8l-0.2-0.1l-0.1,0.1c0,0,0,0,0,0.1l0,0c0,0.1,0.1,0.1,0.1,0.1c0.1,0,0.1,0,0.2,0L-43-14.8L-43-14.8
				L-43-14.8L-43-14.8L-43-14.8L-43-14.8L-43-14.8z M-43.5-14.7L-43.5-14.7L-43.5-14.7L-43.5-14.7L-43.5-14.7z M-43.5-14.8h0.2
				l-0.1-0.2h-0.2V-14.8L-43.5-14.8z M-43.4-14.9v0.2C-43.3-14.8-43.3-14.8-43.4-14.9L-43.4-14.9L-43.4-14.9z M-43-14.8L-43-14.8
				L-43-14.8L-43-14.8z M-43.5-14.6L-43.5-14.6L-43.5-14.6L-43.5-14.6z M-43.5-14.6L-43.5-14.6L-43.5-14.6L-43.5-14.6L-43.5-14.6
				L-43.5-14.6L-43.5-14.6v-0.2l0,0l-0.1-0.2h-0.1L-43.5-14.6z M-41.8-14.8l-0.1-0.2H-42l0.1,0.2L-41.8-14.8z M-41.8-14.7
				L-41.8-14.7l-0.1-0.2H-42L-41.8-14.7L-41.8-14.7L-41.8-14.7z M-41.9-14.6L-41.9-14.6l-0.1-0.3h-0.1L-41.9-14.6L-41.9-14.6
				L-41.9-14.6z M-42.1-14.5L-42.1-14.5l-0.1-0.4l0,0l0.1,0.6V-14.5z M-42.2-14.3L-42.2-14.3l-0.1-0.6h-0.1L-42.2-14.3L-42.2-14.3z
				 M-42.4-14.8l0.1,0.6h0.1v-0.1h0.1L-42.4-14.8L-42.4-14.8z M-43.1-14.9C-43-14.9-43-14.9-43.1-14.9L-43.1-14.9L-43.1-14.9z
				 M-42.8-14.8L-42.8-14.8c-0.1,0-0.2,0-0.2,0l0,0l0,0l0,0l0,0l0,0H-42.8L-42.8-14.8L-42.8-14.8L-42.8-14.8L-42.8-14.8 M-42.9-14.8
				C-42.8-14.8-42.8-14.8-42.9-14.8L-42.9-14.8L-42.9-14.8C-42.8-14.8-42.8-14.8-42.9-14.8L-42.9-14.8L-42.9-14.8L-42.9-14.8
				L-42.9-14.8 M-42.6-14.8h-0.2l0,0l0,0l0,0l0,0l0,0l-0.2,0.2h0.2L-42.6-14.8z M-43.2-14.5C-43.3-14.5-43.3-14.5-43.2-14.5
				l-0.2-0.1l-0.1,0.1c0,0,0,0.1,0.1,0.1L-43.2-14.5C-43.2-14.5-43.2-14.5-43.2-14.5 M-43-14.2L-43-14.2l-0.3-0.2l-0.1,0.1l0,0l0,0
				L-43-14.2L-43-14.2z M-43.5-14.3C-43.5-14.3-43.6-14.3-43.5-14.3C-43.6-14.3-43.6-14.3-43.5-14.3C-43.5-14.3-43.5-14.3-43.5-14.3
				C-43.5-14.3-43.5-14.3-43.5-14.3L-43.5-14.3L-43.5-14.3C-43.5-14.3-43.5-14.3-43.5-14.3L-43.5-14.3L-43.5-14.3z M-43.5-14.4
				L-43.5-14.4L-43.5-14.4L-43.5-14.4c0.1,0,0.1,0,0.2,0l0,0c0.1,0,0.1-0.1,0.1-0.1h-0.1l-0.1-0.1h-0.1l0,0
				C-43.5-14.4-43.5-14.4-43.5-14.4 M-43.5-14.5L-43.5-14.5L-43.5-14.5l-0.1-0.4l0,0L-43.5-14.5L-43.5-14.5z M-43.7-14.4L-43.7-14.4
				l-0.1-0.5h-0.1L-43.7-14.4L-43.7-14.4z M-44.1-14.6h0.2v-0.1L-44.1-14.6z M-44-14.8L-44-14.8L-44-14.8L-44-14.8l0.1,0.2l0,0
				l0.1,0.4l0,0l0.1-0.2l-0.2-0.6L-44-14.8z M-44.4-14.9h-0.3l-0.3,1.1h0.3L-44.4-14.9z M-44.7-13.9L-44.7-13.9L-44.7-13.9
				L-44.7-13.9L-44.7-13.9h-0.7v0.1L-44.7-13.9z M-45.2-14.9h0.4l0,0H-45.2L-45.2-14.9z M-45.7-14.9L-45.7-14.9h0.4l0,0H-45.7z
				 M-45.3-14.9h-0.4l-0.1,1.1h0.3L-45.3-14.9z M-45.5-13.8L-45.5-13.8h-0.7v0.1L-45.5-13.8z M-46.1-14.9h0.2l0,0l0,0l0,0L-46-15
				L-46.1-14.9L-46.1-14.9z M-46-15L-46-15L-46-15L-46-15L-46-15L-46-15z M-45.9-15.2L-45.9-15.2L-45.9-15.2h0.2v-0.1h-0.4v0.1
				H-45.9z M-46.1-16.1L-46.1-16.1L-46.1-16.1L-46.1-16.1z M-46.2-16.2L-46.2-16.2l0.1-0.2h-0.1V-16.2z M-46.1-16.4L-46.1-16.4v0.3
				l0,0v0.7h0.4l0.2-1.9l-0.6-0.1l0,0l0,0l0,0V-16.4z M-46.2-17.3L-46.2-17.3C-46.2-17.2-46.2-17.2-46.2-17.3L-46.2-17.3L-46.2-17.3
				L-46.2-17.3C-46.1-17.2-46.1-17.3-46.2-17.3L-46.2-17.3L-46.2-17.3 M-45.7-17.3L-45.7-17.3l-0.5-0.1l0,0v0.1H-45.7
				C-45.7-17.2-45.7-17.2-45.7-17.3C-45.7-17.3-45.6-17.3-45.7-17.3L-45.7-17.3 M-45-17.2l-0.5-0.1l0,0l0,0l0,0l0,0L-45-17.2
				C-44.9-17.2-45-17.2-45-17.2 M-44.9-17l-0.6-0.1l-0.2,1.5l0,0l0,0v0.3h0.4l0.2-0.8l0,0v-0.2l0,0L-44.9-17L-44.9-17 M-45.1-16.2
				v0.2l0,0h0.2v-0.2H-45.1z M-44.9-16.2L-44.9-16.2l-0.1,0.3l0,0l0,0l-0.2,0.6h0.4v-0.1l0,0l0,0l0.1-0.3l0,0l0,0v-0.1l0,0l0.3-1.3
				l-0.5-0.1l0,0l0,0L-44.9-16.2z M-44.7-17.1L-44.7-17.1L-44.7-17.1L-44.7-17.1L-44.7-17.1C-44.7-17.2-44.7-17.1-44.7-17.1
				 M-44.3-17.1l-0.4-0.1l0,0v0.1H-44.3C-44.3-17-44.3-17.1-44.3-17.1L-44.3-17.1L-44.3-17.1L-44.3-17.1z M-43.6-17l-0.5-0.1l0,0
				l0,0L-43.6-17L-43.6-17 M-43.6-16.9l-0.5-0.1l-0.3,1.2l0,0l-0.2,0.5l0,0h0.3l0,0l0,0L-43.6-16.9z M-43.8-15.2L-43.8-15.2
				L-43.8-15.2L-43.8-15.2z M-43.7-15.3L-43.7-15.3l0.2,0.1l-0.1-0.2h-0.2L-43.7-15.3L-43.7-15.3z M-43.5-15.4L-43.5-15.4
				C-43.5-15.3-43.4-15.4-43.5-15.4h0.2l0,0C-43.3-15.5-43.4-15.4-43.5-15.4 M-43.2-15.4L-43.2-15.4v0.2l0,0l0,0V-15.4z M-43.2-15.5
				l0.1,0.2h0.1v-0.1l0,0l0,0l0,0L-43.2-15.5L-43.2-15.5z M-43.3-15.9L-43.3-15.9C-43.3-15.8-43.2-15.9-43.3-15.9h0.2l0,0l0,0l0,0
				V-16C-43.1-16-43.2-15.9-43.3-15.9 M-42.9-15.9C-43-15.9-43-15.9-42.9-15.9L-42.9-15.9L-42.9-15.9L-42.9-15.9L-42.9-15.9
				 M-42.6-15.7C-42.6-15.8-42.6-15.8-42.6-15.7l-0.3-0.1l0,0h-0.2l0,0c0,0,0,0.1,0,0.2c0,0.1,0,0.2-0.1,0.2h0.1l0,0h0.1h0.2
				c0.1,0,0.1,0,0.1-0.1C-42.5-15.6-42.5-15.7-42.6-15.7L-42.6-15.7L-42.6-15.7z M-41.8-15.8C-41.7-15.8-41.7-15.8-41.8-15.8
				L-41.8-15.8L-41.8-15.8L-41.8-15.8L-41.8-15.8z M-41.8-16.1L-41.8-16.1l0.2,0.1v-0.1H-41.8z M-41.5-16h-0.2v0.1l0,0L-41.5-16
				L-41.5-16z M-41.3-15.9h-0.2v0.1l0,0L-41.3-15.9L-41.3-15.9z M-41.5-15.6L-41.5-15.6L-41.5-15.6h0.2l0,0v-0.1L-41.5-15.6z
				 M-41.3-15.5L-41.3-15.5h-0.2H-41.3L-41.3-15.5L-41.3-15.5z M-40.9-15.5L-40.9-15.5L-40.9-15.5L-40.9-15.5z M-41.1-15.6h0.2l0,0
				v-0.1L-41.1-15.6L-41.1-15.6L-41.1-15.6z M-41.2-16.1v0.2h0.2V-16L-41.2-16.1z M-40.9-15.9L-40.9-15.9h-0.2v0.1l0.1,0.1h0.2
				L-40.9-15.9L-40.9-15.9z M-40.9-15.6L-40.9-15.6h-0.2l0,0l0.1,0.1L-40.9-15.6L-40.9-15.6L-40.9-15.6z M-40.8-15.6L-40.8-15.6
				L-40.8-15.6L-40.8-15.6L-40.8-15.6l-0.2,0.2l0,0l-0.2,0.2l0,0l0,0h0.2l1-1.2l-0.2-0.1l0,0l0,0L-40.8-15.6z M-40.1-16.5
				L-40.1-16.5L-40.1-16.5C-40.1-16.5-40.1-16.5-40.1-16.5C-40.1-16.5-40.1-16.5-40.1-16.5L-40.1-16.5 M-39.9-16.5L-39.9-16.5h-0.2
				l0,0v0.1L-39.9-16.5C-39.9-16.5-39.9-16.5-39.9-16.5L-39.9-16.5L-39.9-16.5 M-39.6-16.5l-0.2-0.1l0,0l0,0L-39.6-16.5
				C-39.6-16.4-39.6-16.5-39.6-16.5L-39.6-16.5 M-39.5-16.5L-39.5-16.5C-39.6-16.5-39.6-16.5-39.5-16.5
				C-39.6-16.5-39.6-16.4-39.5-16.5l0.2,0.1l0,0l0,0l0,0L-39.5-16.5z M-39-16.3l-0.2-0.1l0,0l0,0L-39-16.3L-39-16.3L-39-16.3
				L-39-16.3L-39-16.3"/>
		</g>
	</g>
	
		<animateTransform  accumulate="none" additive="replace" attributeName="transform" attributeType="XML" calcMode="linear" dur="10s" fill="remove" from="0 800 1200" repeatCount="indefinite" restart="always" to="360 800 1200" type="rotate">
		</animateTransform>
</g>
<path class="st5" d="M694.9,311"/>
<path class="st6" d="M271.5,476.2c53.4-37.7,197.6-128.9,403.3-133.8c226.6-5.4,386.2,97.3,438,133.8"/>
<ellipse class="st7" cx="868.3" cy="394.8" rx="18.5" ry="18.5"/>
<path class="st8" d="M362.3,472.5c34.2-26.2,89.7-60.8,165.2-77.5c187.1-41.3,339.4,62.1,366.4,81"/>
<ellipse transform="matrix(0.9871 -0.1602 0.1602 0.9871 -60.2236 86.2014)" class="st9" cx="504.5" cy="416.6" rx="63.3" ry="37.2"/>
<ellipse class="st10" cx="718" cy="362.8" rx="78.7" ry="22"/>
<ellipse transform="matrix(7.088351e-02 -0.9975 0.9975 7.088351e-02 412.8555 955.6776)" class="st11" cx="719.4" cy="256.2" rx="38.1" ry="38.1"/>
<ellipse class="st12" cx="691.5" cy="359.8" rx="14.1" ry="10.5"/>
<path class="st12" d="M688.8,261.3c-3.2-8,8.8-24.9,23.7-25.7c15.5-0.8,29.3,16.1,26.6,24.4c-2.8,8.7-23.4,8.6-26.6,8.6
	C706.8,268.6,691.7,268.6,688.8,261.3z"/>
<ellipse class="st12" cx="747.6" cy="362.2" rx="14.1" ry="10.5"/>
<path class="st11" d="M723.1,281.3c-10.9,0.1-18.4,0.1-22.4-0.2c-0.8-0.1-3.2-0.2-6.1,0.5c-1.2,0.3-2.9,0.7-4.7,1.9
	c-2.4,1.6-3.6,3.6-4.5,5c0,0-0.8,1.3-1.4,2.7c-3.8,8.7-0.1,49.7,3.2,59.7c0.1,0.3,0.3,1,0.8,1.8c1.7,2.9,4.7,4.1,6.3,4.7
	c4.6,1.8,8.9,1.1,10.9,0.6l15.8-30.6"/>
<path class="st11" d="M719.9,325.5l15,32.7c2,0.5,6.4,1.1,10.9-0.6c1.5-0.6,4.5-1.8,6.3-4.7c0.5-0.8,0.7-1.5,0.8-1.8
	c3.3-10.1,7-51,3.2-59.7c-0.6-1.4-1.4-2.7-1.4-2.7c-0.9-1.4-2.1-3.4-4.5-5c-1.8-1.2-3.5-1.6-4.7-1.9c-2.9-0.7-5.3-0.5-6.1-0.5
	c-4,0.3-11.5,0.3-22.4,0.2"/>
<ellipse class="st12" cx="773.3" cy="329.6" rx="7.5" ry="7.3"/>
<line class="st13" x1="650" y1="343" x2="669.6" y2="204.9"/>
<ellipse class="st12" cx="719.8" cy="303.9" rx="19.2" ry="14.4"/>
<ellipse class="st12" cx="663.2" cy="278.7" rx="4.9" ry="4.9"/>
<rect x="754.5" y="290.9" transform="matrix(0.8366 -0.5479 0.5479 0.8366 -45.585 467.7406)" class="st11" width="13.3" height="38.8"/>
<path class="st11" d="M667.8,278c3,7.1,6.4,9.3,9,9.9c4,1,7-1.4,11.2,0.8c0.6,0.3,3.5,1.9,4,4.8c0.5,3-1.6,5.8-3.6,7.1
	c-3.8,2.6-8.7,1-10.9,0.3c-7-2.3-11.1-8-14-12.1c-2.1-3-3.5-5.7-4.3-7.6"/>
<path class="st14" d="M558.5,295.2c4.7-1,8.8-1.8,11.8,0.7c4,3.3,3.8,10.3,1.1,14.6c-1.8,2.9-5.4,5.5-7.2,4.6
	c-1.4-0.7-1.4-3.4-1.4-5c0-4.8,2.3-7.1,1.4-8.1c-1.5-1.6-10.2,2.4-11.5,3c-1,0.5-2.4,1.1-3.5,0.6c-1.3-0.6-1.9-2.6-1.6-4.1
	C548.5,297.2,556.3,295.6,558.5,295.2z"/>
<path class="st14" d="M559.3,254.6c1.6,3-7.8,14-25.3,23.9c-14.9,8.4-34.6,19.5-58.9,16.9c-3-0.3-24.3-2.8-40.3-1.2
	c-2.5,0.3-7.7,0.9-9.7,4.5c-2,3.7,0.4,8.5,0.9,9.6c6.1,12.4,30.5,16.2,49.2,12.7c13.8-2.6,13.5-9.4,26.4-11.2
	c14.8-2,17.9,5.2,31.8,3.4c0.8-0.1,1.3-0.2,1.8-0.3c14.7-2.6,20.1-10.4,29.5-15.3c9-4.7,8.4,0.2,37-6.1c5.6-1.2,15.4-3.6,17.4-10.1
	c0.2-0.6,0.9-1.9,0.4-2.7c-1-1.5-5.6-1-8.5,1.4c-2.1,1.7-1.7,3.1-3.5,3.9c-2.1,1-3.6-0.3-7.6-0.8c-3-0.4-3.6,0.2-7,0.2
	c-3.9,0-10.6,0.1-12.2-2.7c-2.2-3.8,3.8-13.6,11.6-19.2c4.8-3.5,10.4-5.4,13.9-11.5c0.4-0.8,1.9-3.4,1-4.4c-0.7-0.7-2.2-0.2-6.4,0.7
	c-3.2,0.7-4.8,1-5.5,1c-4.7-0.1-6-3.9-10.6-4.2c-1.1-0.1-1.2,0.1-5.3,1.2c-6.1,1.6-10.4,2.3-17,4.7c-2.6,0.9-4.7,1.8-4.8,3
	C557.2,253.2,558.8,253.7,559.3,254.6z"/>
<path class="st14" d="M501.3,307.4c-1.4,0.5-5.4,1.9-5.3,3.5c0,0.6,0.6,0.9,0.9,1.1c3.1,2.4,2.3,11.5-1.1,19.6c-1.4,3.3-1.8,3-3,5.7
	c-4.1,9.3-3.8,22.9,1.5,25.4c4.8,2.2,13.3-4.6,12.7-6.6c-0.4-1.3-4.7,0.4-7.2-1.9c-4.5-4.2,1.7-17.2,2.7-19.3
	c2.3-4.7,6.9-14.4,12.6-13.8c3.5,0.3,6.5,4.5,7.7,7.5c0.9,2.3,0.5,3.3,1,5.5c1.3,6.1,7.8,12.6,14.9,12.8c6.2,0.2,12.1-4.4,11.7-6.4
	c-0.2-1.1-2.3-0.8-6.8-2.3c-3.1-1.1-9.6-3.3-10.6-7.5c-0.4-1.7,0.3-2.5,1.2-5.6c0.6-2.1,2.9-9.4,1.4-13.5
	C532.3,302.5,508.9,304.7,501.3,307.4z"/>
<ellipse transform="matrix(0.6775 -0.7355 0.7355 0.6775 14.1303 525.1988)" class="st15" cx="606" cy="246.5" rx="1.3" ry="1.7"/>
<ellipse transform="matrix(0.9655 -0.2603 0.2603 0.9655 -45.415 161.0669)" cx="585.4" cy="252" rx="2.6" ry="0.4"/>
<ellipse transform="matrix(0.7667 -0.642 0.642 0.7667 -33.1235 431.4611)" class="st16" cx="577.1" cy="261.3" rx="2.5" ry="0.2"/>
<ellipse transform="matrix(0.5022 -0.8648 0.8648 0.5022 60.7072 631.2511)" class="st16" cx="578.6" cy="262.9" rx="2.5" ry="0.2"/>
<ellipse transform="matrix(0.866 -0.5 0.5 0.866 -52.7694 322.657)" class="st16" cx="575.7" cy="259.8" rx="2.5" ry="0.2"/>
<ellipse transform="matrix(0.9393 -0.343 0.343 0.9393 -51.9095 207.6945)" class="st17" cx="561.2" cy="250.6" rx="2.5" ry="0.2"/>
<ellipse transform="matrix(0.1708 -0.9853 0.9853 0.1708 217.1743 761.7241)" class="st17" cx="561.2" cy="251.8" rx="0.2" ry="2.5"/>
<rect x="610.1" y="180" transform="matrix(0.1409 -0.99 0.99 0.1409 323.2977 809.7353)" class="st18" width="36.3" height="77.2"/>
<polygon class="st19" points="562.7,250.4 560,251.3 562.7,251.8 "/>
<g>
	<line class="st20" x1="617.8" y1="227.4" x2="636.5" y2="207.3"/>
	<line class="st20" x1="631.9" y1="230.2" x2="623.9" y2="203.9"/>
	<line class="st20" x1="614.5" y1="213.5" x2="641.2" y2="219.7"/>
	<line class="st20" x1="618.9" y1="214.4" x2="617.4" y2="209.2"/>
	<line class="st20" x1="634.1" y1="209.9" x2="632.6" y2="204.7"/>
	<line class="st20" x1="634.5" y1="209.9" x2="639.6" y2="211.2"/>
	<line class="st20" x1="630.8" y1="225.9" x2="635.9" y2="227.2"/>
	<line class="st20" x1="615.7" y1="217.9" x2="618.9" y2="214.5"/>
	<line class="st20" x1="627.9" y1="229.4" x2="631" y2="226"/>
	<line class="st20" x1="615" y1="223.3" x2="620.1" y2="224.6"/>
	<line class="st20" x1="621.9" y1="229.9" x2="620.4" y2="224.8"/>
	<line class="st20" x1="637.9" y1="223.8" x2="636.4" y2="218.6"/>
	<line class="st20" x1="636.7" y1="218.6" x2="639.8" y2="215.2"/>
	<line class="st20" x1="619.9" y1="206.5" x2="625" y2="207.8"/>
	<line class="st20" x1="625.2" y1="207.3" x2="628.3" y2="203.8"/>
</g>
<g>
	<ellipse class="st21" cx="132" cy="121.2" rx="47" ry="46.8"/>
	<path class="st22" d="M179.4,120.9c0,26.4-25.4,50.9-47,46.8c-18.3-3.5-28.5-26.5-29.4-43.7c-1.1-20.2,9.8-46.2,29.4-49.9
		C154.1,70,179.4,94.6,179.4,120.9z"/>
	<path class="st23" d="M130,114c4.4-1.9,7.4-3.2,11-6c6.1-4.8,6.3-8,10-9c6.1-1.6,13.1,5.2,16,9c7.2,9.3,5.3,20.4,5,22
		c-1.5,8-7,18.2-16,21c-12.2,3.7-16.9-10.2-39-12c-3.2-0.3-8.4-0.4-11-4c-2.2-3.1-2.4-8.4,0-12C109.5,117.7,115.5,120.2,130,114z"/>
	<path class="st24" d="M112,99c6.3-3.2,5.6-7.7,10-9c5.2-1.5,10.8,3.2,13,5c2.7,2.3,5.8,5.9,5,7c-0.7,1.1-4-1.9-9-2
		c-8.7-0.2-12,8.4-19,7c-3.3-0.7-6.3-3.4-6-5C106.2,100.6,108.7,100.7,112,99z"/>
	<path class="st24" d="M133,127c5.9-1.2,10-6.7,11-8c3.9-5.3,3.1-9,6-10c3.9-1.3,9.2,4.1,12,7c3.1,3.2,4.6,4.7,5,7
		c1.4,8.2-12.9,21.4-25,20c-8-0.9-8.6-7.4-20-10c-8.8-2-15.1,0.4-16-2c-0.8-2.1,3.1-6.7,8-8C121.4,121.1,125.1,128.6,133,127z"/>
	
		<animateTransform  accumulate="none" additive="replace" attributeName="transform" attributeType="XML" calcMode="linear" dur="10s" fill="remove" from="0 800 1800" repeatCount="indefinite" restart="always" to="360 800 1800" type="rotate">
		</animateTransform>
</g>
<g>
	<ellipse class="st25" cx="1255.8" cy="201.8" rx="47" ry="46.8"/>
	<path class="st26" d="M1303.2,201.5c0,26.4-25.4,50.9-47,46.8c-18.3-3.5-28.5-26.5-29.4-43.7c-1.1-20.2,9.8-46.2,29.4-49.9
		C1277.9,150.6,1303.2,175.2,1303.2,201.5z"/>
	<path class="st27" d="M1253.8,194.6c4.4-1.9,7.4-3.2,11-6c6.1-4.8,6.3-8,10-9c6.1-1.6,13.1,5.2,16,9c7.2,9.3,5.3,20.4,5,22
		c-1.5,8-7,18.2-16,21c-12.2,3.7-16.9-10.2-39-12c-3.2-0.3-8.4-0.4-11-4c-2.2-3.1-2.4-8.4,0-12
		C1233.3,198.3,1239.3,200.8,1253.8,194.6z"/>
	<path class="st28" d="M1256.8,207.6c5.9-1.2,10-6.7,11-8c3.9-5.3,3.1-9,6-10c3.9-1.3,9.2,4.1,12,7c3.1,3.2,4.6,4.7,5,7
		c1.4,8.2-12.9,21.4-25,20c-8-0.9-8.6-7.4-20-10c-8.8-2-15.1,0.4-16-2c-0.8-2.1,3.1-6.7,8-8C1245.2,201.7,1248.9,209.2,1256.8,207.6
		z"/>
	<path class="st27" d="M1235.1,177.3c-1.6-5.3,8.4-15.6,19.1-17.6c15.7-3.1,30.4,12.1,29.4,14.2c-1.1,2.3-20.5-10.4-32.4-2.2
		c-4.9,3.4-7.7,9.8-12.1,9C1237.3,180.4,1235.6,179,1235.1,177.3z"/>
	
		<animateTransform  accumulate="none" additive="replace" attributeName="transform" attributeType="XML" calcMode="linear" dur="10s" fill="remove" from="0 800 1800" repeatCount="indefinite" restart="always" to="360 800 1800" type="rotate">
		</animateTransform>
</g>
</svg>
